<svg width="68" height="84" viewBox="0 0 68 84" fill="none" xmlns="http://www.w3.org/2000/svg">
<g opacity="0.75" filter="url(#filter0_d_252_39)">
<path d="M54.934 21.1041V65.4565C54.934 66.488 54.0901 67.3319 53.0587 67.3319H14.5433C13.5119 67.3319 12.668 66.488 12.668 65.4565V10.5435C12.668 9.51201 13.5119 8.66809 14.5433 8.66809H42.4863L54.934 21.1041Z" fill="#232323"/>
<path opacity="0.15" d="M54.9347 21.1041V65.4565C54.9347 66.4997 54.1025 67.3319 53.0593 67.3319H49.3906C50.4221 67.3319 51.266 66.4997 51.266 65.4565V21.1041H54.9347Z" fill="black"/>
<path d="M54.9341 21.1041L44.3617 21.1158C43.3302 21.1158 42.4863 20.2719 42.4863 19.2405V8.67981L54.9341 21.1041Z" fill="#222222"/>
<path opacity="0.15" d="M43.0726 31.8289L41.5254 32.7431V44.5579L42.4396 44.0187C42.9671 43.7023 43.2953 43.1397 43.2953 42.5184V32.6962C43.307 32.3797 43.2249 32.0867 43.0726 31.8289Z" fill="black"/>
<path d="M33.8007 37.3143V48.8478C33.5077 48.8478 33.2029 48.7775 32.9333 48.6251C32.9216 48.6251 32.9216 48.6251 32.9099 48.6134L25.1623 44.0305C24.6348 43.714 24.3066 43.1514 24.3066 42.5302V32.708C24.3066 32.4032 24.3887 32.1102 24.5293 31.8406L33.8007 37.3143Z" fill="#3A3A3A"/>
<path opacity="0.5" d="M25.678 32.5087L24.5293 31.8289C24.3887 32.0867 24.3066 32.3797 24.3066 32.6962V42.5184C24.3066 43.1397 24.6348 43.7023 25.1623 44.0187L25.678 44.3235V32.5087Z" fill="#3A3A3A"/>
<path opacity="0.15" d="M32.1133 36.3063V48.1211L32.9103 48.59C32.922 48.59 32.922 48.6017 32.9338 48.6017C33.2033 48.754 33.4964 48.8244 33.8011 48.8244V37.2909L32.1133 36.3063Z" fill="#3A3A3A"/>
<path d="M43.3065 32.6962V42.5184C43.3065 43.1397 42.9783 43.7023 42.4509 44.0187L34.7033 48.6017C34.6916 48.6017 34.6916 48.6134 34.6799 48.6134C34.6681 48.6134 34.6681 48.6251 34.6564 48.6251C34.3985 48.7658 34.1055 48.8361 33.8242 48.8361V37.3026L43.0956 31.8171C43.2245 32.0867 43.3065 32.3797 43.3065 32.6962Z" fill="#292929"/>
<path opacity="0.5" d="M35.2542 36.447L33.8008 37.3026V48.8361C34.0821 48.8361 34.3751 48.7775 34.633 48.6251C34.6447 48.6251 34.6447 48.6251 34.6564 48.6134C34.6681 48.6134 34.6681 48.6017 34.6799 48.6017L35.2425 48.2735V36.447H35.2542Z" fill="#232323"/>
<path d="M43.072 31.8289L33.8006 37.3143L24.5293 31.8289C24.6699 31.571 24.8926 31.3483 25.1505 31.1959L32.8981 26.613C32.9098 26.613 32.9098 26.6013 32.9216 26.6013C33.4607 26.2966 34.1171 26.2966 34.6446 26.6013C34.6563 26.6013 34.6563 26.613 34.668 26.613L42.4156 31.1959C42.7086 31.3483 42.9313 31.571 43.072 31.8289Z" fill="#505050"/>
<path d="M55.4147 20.6236L42.967 8.19926C42.8498 8.08205 42.6388 8 42.4864 8H14.5435C13.1369 8 12 9.13694 12 10.5435V65.4565C12 66.8631 13.1369 68 14.5435 68H53.0588C54.4653 68 55.6023 66.8631 55.6023 65.4565C55.6023 59.9008 55.6023 26.6482 55.6023 21.1041C55.6023 20.9283 55.5319 20.7525 55.4147 20.6236ZM43.1662 10.309L53.3049 20.4477H44.3618C43.7054 20.4477 43.1662 19.9086 43.1662 19.2522V10.309ZM53.0588 66.6638H14.5435C13.8871 66.6638 13.3479 66.1246 13.3479 65.4683V10.5435C13.3479 9.88709 13.8871 9.34792 14.5435 9.34792H41.8183V19.2405C41.8183 20.647 42.9553 21.7839 44.3618 21.7839H54.2543V65.4565C54.2543 66.1246 53.7152 66.6638 53.0588 66.6638Z" fill="#565656"/>
<path d="M44.9244 55.1772H22.6779C22.3028 55.1772 21.998 55.4819 21.998 55.857C21.998 56.2321 22.3028 56.5368 22.6779 56.5368H44.9127C45.2877 56.5368 45.5925 56.2321 45.5925 55.857C45.5925 55.4819 45.2878 55.1772 44.9244 55.1772Z" fill="#676767"/>
<path d="M39.3578 58.8291H28.2345C27.8594 58.8291 27.5547 59.1339 27.5547 59.509C27.5547 59.884 27.8594 60.1888 28.2345 60.1888H39.3578C39.7328 60.1888 40.0376 59.884 40.0376 59.509C40.0376 59.1339 39.7328 58.8291 39.3578 58.8291Z" fill="#676767"/>
<path d="M24.7639 44.5696C24.8108 44.6048 32.5935 49.1994 32.6522 49.2229C33.3906 49.6331 34.3283 49.5862 34.9495 49.2346C35.0198 49.2112 42.8026 44.5931 42.8377 44.5696C43.541 44.1242 43.9747 43.3389 43.9747 42.5184V32.6962C43.9747 31.8406 43.5293 31.0553 42.7791 30.6099L35.055 26.0387C34.422 25.605 33.3554 25.5581 32.5584 26.0269C23.7207 31.2545 24.8459 30.5747 24.7639 30.645C24.0255 31.1022 23.627 31.8875 23.627 32.6962V42.5184C23.627 43.3389 24.0606 44.1242 24.7639 44.5696ZM25.5023 43.4327C25.1741 43.2334 24.9749 42.8935 24.9749 42.5067V32.872C25.7133 33.3057 31.0933 36.4821 33.1327 37.6894V47.9336C31.5269 46.9959 25.643 43.5147 25.5023 43.4327ZM42.0993 43.4327C41.9469 43.5265 38.0907 45.8121 34.4806 47.9453V37.6894L42.6268 32.872V42.5067C42.6268 42.8935 42.4275 43.2334 42.0993 43.4327ZM33.2734 27.1756C33.6133 26.9881 34.0118 26.9881 34.3517 27.1756L41.9704 31.6882C41.1265 32.1805 34.7971 35.9312 33.8008 36.5173L25.6195 31.6882C27.2253 30.7505 32.8045 27.4452 33.2734 27.1756Z" fill="#565656"/>
</g>
<defs>
<filter id="filter0_d_252_39" x="0" y="0" width="67.6016" height="84" filterUnits="userSpaceOnUse" color-interpolation-filters="sRGB">
<feFlood flood-opacity="0" result="BackgroundImageFix"/>
<feColorMatrix in="SourceAlpha" type="matrix" values="0 0 0 0 0 0 0 0 0 0 0 0 0 0 0 0 0 0 127 0" result="hardAlpha"/>
<feOffset dy="4"/>
<feGaussianBlur stdDeviation="6"/>
<feComposite in2="hardAlpha" operator="out"/>
<feColorMatrix type="matrix" values="0 0 0 0 0 0 0 0 0 0 0 0 0 0 0 0 0 0 0.25 0"/>
<feBlend mode="normal" in2="BackgroundImageFix" result="effect1_dropShadow_252_39"/>
<feBlend mode="normal" in="SourceGraphic" in2="effect1_dropShadow_252_39" result="shape"/>
</filter>
</defs>
</svg>
