<svg width="29" height="29" viewBox="0 0 29 29" fill="none" xmlns="http://www.w3.org/2000/svg">
<g clip-path="url(#clip0_333_10)">
<path d="M19.4056 4.67676C19.1537 4.81233 18.8395 4.71796 18.7039 4.46599C18.5684 4.21402 18.6627 3.89986 18.9147 3.7643L20.1384 3.10714L14.6222 0.136191C14.5456 0.0949433 14.4533 0.0949433 14.3767 0.136191L8.8605 3.10714L10.0842 3.76482C10.3362 3.90038 10.4305 4.21454 10.295 4.46651C10.1594 4.71848 9.84523 4.81285 9.59326 4.67728L8.28516 3.97351V9.89107C8.28521 9.98628 8.33751 10.0738 8.42135 10.1189L13.9816 13.1152V11.3929C13.9816 11.1068 14.2134 10.875 14.4994 10.875C14.7854 10.875 15.0173 11.1068 15.0173 11.3929V13.1152L20.5775 10.121C20.662 10.0755 20.7144 9.98703 20.7137 9.89107V3.97351L19.4056 4.67676ZM16.8163 6.07498L15.0173 7.04285V8.28571C15.0173 8.57171 14.7854 8.80357 14.4994 8.80357C14.2134 8.80357 13.9816 8.57171 13.9816 8.28571V7.04285L12.1825 6.07601C11.9306 5.94045 11.8362 5.62629 11.9718 5.37432C12.1073 5.12235 12.4215 5.02798 12.6735 5.16355L14.4994 6.14437L16.3254 5.16044C16.5774 5.02487 16.8915 5.11924 17.0271 5.37121C17.1627 5.62318 17.0683 5.93734 16.8163 6.07291V6.07498Z" fill="#676767"/>
<path d="M0.58 26.9286H2.76846L5.94034 19.6786H5.29768C4.72716 19.6713 4.19093 19.9503 3.86943 20.4217L0.0849286 26.1471C0.0300846 26.2241 0.000417227 26.3162 0 26.4107C0.0180759 26.7134 0.277171 26.9448 0.58 26.9286Z" fill="#676767"/>
<path d="M0.58 27.9643C0.38178 27.9634 0.185335 27.9269 0 27.8566V28.4821C0 28.7681 0.231853 29 0.517857 29H28.4821C28.7681 29 29 28.7681 29 28.4821V27.8566C28.8147 27.9269 28.6182 27.9634 28.42 27.9643H0.58Z" fill="#676767"/>
<path d="M23.7017 19.6786H23.5764L24.0942 20.8645C24.1587 21.0122 24.1507 21.1814 24.0727 21.3224C23.9946 21.4634 23.8554 21.56 23.696 21.5838L23.2455 21.809C23.0139 21.9247 22.9033 22.1936 22.9865 22.4387L23.5412 24.1031C23.6019 24.2847 23.7578 24.4179 23.9467 24.4496L25.4319 24.6966C25.6377 24.6967 25.8239 24.8187 25.9062 25.0073L26.7488 26.9286H28.4194C28.7222 26.9448 28.9813 26.7134 28.9994 26.4107C28.9994 26.3181 28.971 26.2277 28.9181 26.1518L25.1289 20.4191C24.807 19.949 24.2714 19.6711 23.7017 19.6786Z" fill="#676767"/>
<path d="M7.70651 19.6786H7.07058L3.8987 26.9286H25.6176L25.0744 25.6893L23.7772 25.4718C23.2076 25.3792 22.7372 24.9767 22.5576 24.4284L22.004 22.7681C21.7621 22.0345 22.0921 21.2341 22.7808 20.8841L22.9393 20.8049L22.4463 19.6786H21.293L27.8796 9.60469C27.9842 9.44982 27.9972 9.25064 27.9137 9.08349C27.8301 8.91635 27.6631 8.80715 27.4764 8.79776C27.2898 8.78837 27.1126 8.88024 27.0127 9.03815L18.3625 22.2679H10.6371L1.98678 9.03815C1.8869 8.88024 1.7097 8.78837 1.52308 8.79776C1.33646 8.80715 1.16938 8.91635 1.08586 9.08349C1.00234 9.25064 1.01534 9.44982 1.11988 9.60469L7.70651 19.6786Z" fill="#676767"/>
</g>
<defs>
<clipPath id="clip0_333_10">
<rect width="29" height="29" fill="white"/>
</clipPath>
</defs>
</svg>
