<svg width="22" height="15" viewBox="0 0 22 15" fill="none" xmlns="http://www.w3.org/2000/svg">
<path opacity="0.5" fill-rule="evenodd" clip-rule="evenodd" d="M22 2.8125C22 1.2592 20.7688 0 19.25 0H2.75C1.23122 0 0 1.2592 0 2.8125V12.1875C0 13.7408 1.23122 15 2.75 15H19.25C20.7688 15 22 13.7408 22 12.1875V2.8125ZM7.33333 4.6875C7.83959 4.6875 8.25 5.10724 8.25 5.625V9.375C8.25 9.89278 7.83959 10.3125 7.33333 10.3125H3.66667C3.16041 10.3125 2.75 9.89278 2.75 9.375V5.625C2.75 5.10724 3.16041 4.6875 3.66667 4.6875H7.33333ZM11 4.6875C10.4937 4.6875 10.0833 5.10724 10.0833 5.625C10.0833 6.14278 10.4937 6.5625 11 6.5625H14.6667C15.1729 6.5625 15.5833 6.14278 15.5833 5.625C15.5833 5.10724 15.1729 4.6875 14.6667 4.6875H11ZM10.0833 9.375C10.0833 8.85722 10.4937 8.4375 11 8.4375H18.3333C18.8396 8.4375 19.25 8.85722 19.25 9.375C19.25 9.89278 18.8396 10.3125 18.3333 10.3125H11C10.4937 10.3125 10.0833 9.89278 10.0833 9.375Z" fill="white"/>
</svg>
