<svg width="18" height="11" viewBox="0 0 18 11" fill="none" xmlns="http://www.w3.org/2000/svg">
<path fill-rule="evenodd" clip-rule="evenodd" d="M0.36078 5.27594C0.265354 5.37136 0.211744 5.50079 0.211744 5.63574C0.211744 5.7707 0.265354 5.90012 0.36078 5.99555L4.67842 10.3132C4.77385 10.4086 4.90328 10.4622 5.03823 10.4622C5.17318 10.4622 5.30261 10.4086 5.39803 10.3132C5.49346 10.2178 5.54707 10.0883 5.54707 9.95339C5.54707 9.81843 5.49346 9.68901 5.39803 9.59358L1.94895 6.1445L16.5519 6.14522C16.6871 6.14522 16.8167 6.09155 16.9122 5.996C17.0077 5.90045 17.0614 5.77087 17.0614 5.63574C17.0614 5.50062 17.0077 5.37103 16.9122 5.27548C16.8167 5.17994 16.6871 5.12626 16.5519 5.12626L1.94895 5.12698L5.39803 1.6779C5.49346 1.58248 5.54707 1.45305 5.54707 1.3181C5.54707 1.18315 5.49346 1.05372 5.39803 0.958295C5.30261 0.862869 5.17318 0.80926 5.03823 0.80926C4.90327 0.80926 4.77385 0.862869 4.67842 0.958295L0.36078 5.27594Z" fill="white"/>
</svg>
