<svg width="110" height="61" viewBox="0 0 110 61" fill="none" xmlns="http://www.w3.org/2000/svg">
<path d="M28.3376 33.0417L5.64393 15.1792V33.0417H0.00146484V4.03832L22.8681 22.2282V4.03046H28.3435L28.3376 33.0417Z" fill="white"/>
<path d="M47.0609 19.1782H37.2809V33.0417H31.6384V4.03046H47.0609V8.3206H37.2809V14.0051H47.0609V19.1782Z" fill="white"/>
<path d="M73.4729 8.3206H64.9473V33.0417H59.3049V8.3206H50.821V4.03046H73.4729V8.3206Z" fill="white"/>
<path d="M11.5459 39.4013H7.20708V54.549H4.32544V39.4013H0V36.7715H11.5445L11.5459 39.4013Z" fill="white"/>
<path d="M21.6043 48.8661C21.6038 49.1659 21.5823 49.4652 21.5401 49.7616H13.2114C13.3829 50.373 13.7423 50.9068 14.2331 51.2787C14.7201 51.6573 15.3107 51.8584 15.9156 51.8516C16.3263 51.8606 16.7336 51.7708 17.1066 51.5889C17.4795 51.407 17.8082 51.1379 18.0679 50.8019L19.8144 53.2523C18.728 54.349 17.2749 54.9482 15.7716 54.9195C14.2683 54.8908 12.8366 54.2365 11.7885 53.099C10.7404 51.9615 10.1607 50.4331 10.1758 48.8467C10.1909 47.2603 10.7995 45.7445 11.8691 44.6295C12.9495 43.5152 14.4003 42.8913 15.9111 42.8913C17.4219 42.8913 18.8727 43.5152 19.9532 44.6295C20.488 45.1792 20.9104 45.8388 21.1944 46.5674C21.4784 47.2961 21.6179 48.0784 21.6043 48.8661ZM18.387 47.4969C17.862 46.4477 17.0382 45.9231 15.9156 45.9231C14.793 45.9231 13.9627 46.4477 13.4247 47.4969H18.387Z" fill="white"/>
<path d="M26.1833 54.5491H23.3076V36.7653H26.1833V54.5491Z" fill="white"/>
<path d="M39.2581 48.8661C39.2576 49.1658 39.2361 49.4651 39.1939 49.7616H30.8697C31.0411 50.373 31.4006 50.9068 31.8914 51.2787C32.3789 51.6575 32.97 51.8586 33.5753 51.8516C33.9859 51.8605 34.3929 51.7706 34.7656 51.5887C35.1383 51.4068 35.4668 51.1377 35.7261 50.8018L37.4682 53.2459C36.3818 54.3426 34.9287 54.9419 33.4254 54.9132C31.9221 54.8845 30.4904 54.2301 29.4423 53.0927C28.3942 51.9552 27.8145 50.4268 27.8296 48.8404C27.8447 47.254 28.4533 45.7382 29.5229 44.6231C30.6033 43.5089 32.0541 42.885 33.5649 42.885C35.0757 42.885 36.5265 43.5089 37.607 44.6231C38.1425 45.1736 38.5654 45.8342 38.8494 46.564C39.1334 47.2938 39.2725 48.0773 39.2581 48.8661ZM36.0453 47.4969C35.5203 46.4477 34.697 45.9231 33.5753 45.9231C32.4537 45.9231 31.6229 46.4477 31.083 47.4969H36.0453Z" fill="white"/>
<path d="M52.3626 48.8866C52.3704 49.6773 52.2286 50.4618 51.9455 51.194C51.6624 51.9262 51.2438 52.5915 50.714 53.1509C50.1843 53.7103 49.5541 54.1525 48.8604 54.4518C48.1667 54.751 47.4233 54.9013 46.6739 54.8937C45.6798 54.9016 44.7017 54.63 43.84 54.1068V61H40.9658V48.8818C40.9658 47.1884 41.5162 45.7647 42.6169 44.6106C43.415 43.7647 44.4335 43.1883 45.5428 42.9547C46.6521 42.7211 47.8022 42.8409 48.8469 43.2987C49.8916 43.7566 50.7836 44.5319 51.4096 45.526C52.0357 46.5202 52.3674 47.6883 52.3626 48.8818V48.8866ZM49.4869 48.8866C49.4879 48.4967 49.4158 48.1105 49.2747 47.7502C49.1337 47.3899 48.9264 47.0626 48.665 46.7871C48.4035 46.5117 48.0929 46.2935 47.7512 46.1452C47.4095 45.9969 47.0434 45.9215 46.6739 45.9231C46.3021 45.9172 45.9331 45.9908 45.5891 46.1396C45.245 46.2883 44.9331 46.5092 44.6723 46.7887C44.4091 47.0638 44.2003 47.3912 44.0577 47.7519C43.9152 48.1127 43.8418 48.4996 43.8418 48.8905C43.8418 49.2813 43.9152 49.6683 44.0577 50.0291C44.2003 50.3898 44.4091 50.7172 44.6723 50.9923C44.9332 51.2716 45.2451 51.4922 45.5892 51.6407C45.9332 51.7892 46.3022 51.8626 46.6739 51.8563C47.0436 51.8584 47.4101 51.7831 47.7521 51.6349C48.094 51.4867 48.4048 51.2684 48.6664 50.9927C48.9279 50.717 49.1351 50.3893 49.276 50.0287C49.4168 49.668 49.4885 49.2814 49.4869 48.8913V48.8866Z" fill="white"/>
<path d="M65.4405 48.874C65.4405 50.4684 64.8402 51.9976 63.7717 53.125C62.7032 54.2525 61.254 54.8858 59.7429 54.8858C58.2318 54.8858 56.7825 54.2525 55.714 53.125C54.6455 51.9976 54.0452 50.4684 54.0452 48.874C54.0307 48.0833 54.1707 47.2979 54.4566 46.5668C54.7425 45.8357 55.1681 45.1746 55.7068 44.6248C56.7866 43.5098 58.2373 42.8855 59.7481 42.8855C61.2589 42.8855 62.7096 43.5098 63.7894 44.6248C64.3253 45.1763 64.7483 45.838 65.0323 46.5688C65.3163 47.2997 65.4552 48.0842 65.4405 48.874ZM62.5648 48.874C62.5551 48.0918 62.2553 47.3449 61.7297 46.7932C61.2041 46.2416 60.4946 45.9292 59.7533 45.9231C59.3823 45.9163 59.0139 45.9888 58.6701 46.1362C58.3264 46.2836 58.0145 46.5029 57.7532 46.7808C57.4848 47.05 57.2724 47.375 57.1294 47.7354C56.9864 48.0957 56.9159 48.4834 56.9224 48.874C56.9224 49.6637 57.2197 50.4211 57.7489 50.9795C58.2781 51.5379 58.9959 51.8516 59.7443 51.8516C60.4928 51.8516 61.2106 51.5379 61.7398 50.9795C62.269 50.4211 62.5663 49.6637 62.5663 48.874H62.5648Z" fill="white"/>
<path d="M72.8533 45.9121C72.4814 45.9056 72.1121 45.9789 71.7677 46.1274C71.4234 46.2759 71.1113 46.4966 70.8501 46.7761C70.5819 47.0463 70.3695 47.3722 70.2265 47.7333C70.0835 48.0943 70.013 48.4827 70.0194 48.874V54.5491H67.1497V48.874C67.1355 48.0833 67.2757 47.298 67.5616 46.567C67.8474 45.836 68.2728 45.1749 68.8112 44.6248C69.3394 44.0616 69.9706 43.6177 70.6666 43.32C71.3625 43.0224 72.1085 42.8773 72.8592 42.8936L72.8533 45.9121Z" fill="white"/>
<path d="M80.202 54.549C79.4512 54.5657 78.7051 54.4207 78.0091 54.1231C77.3132 53.8255 76.682 53.3813 76.154 52.8179C75.6155 52.2678 75.1901 51.6067 74.9042 50.8757C74.6184 50.1446 74.4782 49.3593 74.4924 48.5686V36.7715H77.3681V42.8841H80.202V45.4698H77.3681V48.5482C77.3624 48.9391 77.4333 49.3271 77.5762 49.6878C77.7192 50.0485 77.9312 50.3742 78.1989 50.6445C78.4597 50.9245 78.7718 51.1456 79.1162 51.2944C79.4605 51.4432 79.83 51.5166 80.202 51.51V54.549Z" fill="white"/>
<path d="M93.2591 48.8661C93.2593 49.1659 93.2378 49.4653 93.1949 49.7616H84.8662C85.0381 50.3732 85.3981 50.9069 85.8894 51.2787C86.3763 51.6575 86.9669 51.8586 87.5719 51.8516C87.9824 51.8606 88.3895 51.7708 88.7622 51.5889C89.1349 51.407 89.4633 51.1378 89.7226 50.8019L91.4692 53.2523C90.3828 54.349 88.9296 54.9482 87.4263 54.9195C85.923 54.8908 84.4914 54.2365 83.4433 53.099C82.3952 51.9615 81.8155 50.4331 81.8306 48.8467C81.8457 47.2603 82.4543 45.7445 83.5238 44.6295C84.6043 43.5152 86.0551 42.8913 87.5659 42.8913C89.0767 42.8913 90.5275 43.5152 91.6079 44.6295C92.1431 45.179 92.5657 45.8385 92.8497 46.5672C93.1337 47.2959 93.273 48.0783 93.2591 48.8661ZM90.0433 47.4969C89.5173 46.4477 88.6935 45.9231 87.5719 45.9231C86.4353 45.9231 85.6045 46.4477 85.0795 47.4969H90.0433Z" fill="white"/>
<path d="M100.672 45.9121C100.3 45.9058 99.9308 45.9791 99.5866 46.1276C99.2423 46.2761 98.9301 46.4967 98.6689 46.7761C98.4006 47.0463 98.1882 47.3722 98.0452 47.7333C97.9023 48.0943 97.8317 48.4827 97.8381 48.874V54.5491H94.9624V48.874C94.9482 48.0833 95.0885 47.298 95.3743 46.567C95.6602 45.836 96.0855 45.1749 96.624 44.6248C97.1521 44.0616 97.7834 43.6177 98.4793 43.32C99.1752 43.0224 99.9212 42.8773 100.672 42.8936V45.9121Z" fill="white"/>
<path d="M73.4729 19.1105C73.4804 8.56614 81.6316 -0.0110059 91.6427 1.06004e-05C94.0241 0.00309579 96.3815 0.50195 98.5798 1.468C100.778 2.43404 102.774 3.84829 104.454 5.62971C106.133 7.41113 107.463 9.5247 108.367 11.8493C109.271 14.174 109.731 16.6639 109.722 19.1766C109.711 29.6942 101.621 38.2289 91.6278 38.2462C81.6346 38.2635 73.4669 29.6486 73.4729 19.1105ZM105.011 19.1499C105.034 11.4068 99.0452 5.02039 91.7367 4.98577C84.291 4.95272 78.2204 11.2809 78.1996 19.0869C78.1787 26.8441 84.2239 33.251 91.589 33.251C95.1387 33.2506 98.5437 31.7668 101.059 29.1242C103.575 26.4815 104.996 22.8952 105.011 19.1499Z" fill="#FAFCF7"/>
<path d="M97.7298 29.0316C96.2695 30.3143 94.5737 30.8494 92.7764 30.9517C86.3091 31.3184 81.1096 26.3704 80.7412 19.5527C80.3549 12.3794 86.7715 6.24949 93.5028 7.35429C94.7079 7.5313 95.8786 7.9101 96.9706 8.4764C97.1943 8.59758 97.5761 8.67155 97.4329 9.05555C97.3241 9.3467 97.0183 9.21293 96.7886 9.16414C93.1 8.44807 89.1818 10.3838 87.1697 13.9233C85.1576 17.4627 85.3799 22.0535 87.7663 25.2152C90.1528 28.377 93.2209 29.6832 97.0138 29.0804C97.2495 29.0442 97.4911 29.0474 97.7298 29.0316ZM93.4983 19.8801C93.2954 17.6217 93.9457 15.6434 95.4373 13.9973C96.9288 12.3511 98.8275 11.6916 101.105 11.6885C97.6239 9.20821 92.9598 9.98881 90.1677 13.3756C87.5008 16.6113 87.5247 21.7261 90.2229 24.9288C93.0255 28.2589 97.6805 29.0206 101.045 26.5876C96.5291 26.128 93.8428 23.7233 93.4983 19.8801Z" fill="url(#paint0_linear_62_47)"/>
<path d="M103.532 19.1404C103.532 20.3108 103.091 21.4332 102.307 22.2608C101.522 23.0884 100.459 23.5533 99.3495 23.5533C98.2403 23.5533 97.1765 23.0884 96.3922 22.2608C95.6079 21.4332 95.1672 20.3108 95.1672 19.1404C95.1672 17.97 95.6079 16.8476 96.3922 16.02C97.1765 15.1924 98.2403 14.7275 99.3495 14.7275C100.459 14.7275 101.522 15.1924 102.307 16.02C103.091 16.8476 103.532 17.97 103.532 19.1404Z" fill="#FAF9FC"/>
<path d="M98.1115 28.9766L98.0906 28.9262L98.1428 28.9341L98.1115 28.9766Z" fill="#049FD7"/>
<defs>
<linearGradient id="paint0_linear_62_47" x1="90.9149" y1="7.22485" x2="90.9149" y2="30.9708" gradientUnits="userSpaceOnUse">
<stop stop-color="#439CFB"/>
<stop offset="1" stop-color="#F187FB"/>
</linearGradient>
</defs>
</svg>
