<svg width="644" height="413" viewBox="0 0 644 413" fill="none" xmlns="http://www.w3.org/2000/svg">
<path style="mix-blend-mode:multiply" d="M553.044 131.803L488.103 169.086V216.112L554.285 255.573L618.908 217.352V170.326L553.044 131.803Z" fill="url(#paint0_linear_62_24)"/>
<path d="M376.877 214.402L415.491 237.083L517.91 178.255" stroke="#0077E1" stroke-width="0.7" stroke-linecap="round" stroke-linejoin="round"/>
<path d="M415.324 239.564C418.55 239.564 421.165 237.817 421.165 235.661C421.165 233.505 418.55 231.757 415.324 231.757C412.099 231.757 409.484 233.505 409.484 235.661C409.484 237.817 412.099 239.564 415.324 239.564Z" fill="#0077E1"/>
<path d="M640.605 173.822L552.832 122.483L466.3 172.172L554.496 222.679L640.605 173.822Z" stroke="#0077E1" stroke-width="0.7" stroke-linecap="round" stroke-linejoin="round"/>
<g style="mix-blend-mode:color-dodge">
<path style="mix-blend-mode:color-dodge" d="M552.832 122.483L640.59 173.821L554.481 222.678L466.284 172.172L552.817 122.483H552.832ZM552.817 119.29C552.285 119.302 551.764 119.448 551.304 119.714L464.711 169.403C464.223 169.681 463.818 170.083 463.536 170.568C463.254 171.053 463.105 171.604 463.105 172.165C463.105 172.726 463.254 173.277 463.536 173.762C463.818 174.247 464.223 174.648 464.711 174.926L552.908 225.447C553.392 225.723 553.939 225.869 554.496 225.871C555.028 225.86 555.549 225.714 556.009 225.447L642.118 176.59C642.602 176.31 643.003 175.907 643.282 175.422C643.562 174.938 643.708 174.388 643.708 173.829C643.708 173.27 643.562 172.72 643.282 172.236C643.003 171.751 642.602 171.348 642.118 171.068L554.36 119.729C553.868 119.444 553.31 119.293 552.741 119.29H552.817Z" fill="url(#paint1_linear_62_24)"/>
</g>
<path d="M554.224 209.893V161.324L488.042 123.406V170.432L554.224 209.893Z" fill="url(#paint2_linear_62_24)"/>
<path d="M554.224 161.324V209.893L618.862 171.688V124.647L554.224 161.324Z" fill="url(#paint3_linear_62_24)"/>
<path d="M618.862 124.647L552.983 86.1239L488.042 123.406L554.224 161.324L618.862 124.647Z" fill="url(#paint4_linear_62_24)"/>
<path d="M612.946 124.284L554.269 157.45L493.974 123.83L553.8 89.7402L612.946 124.284Z" fill="url(#paint5_radial_62_24)"/>
<path d="M555.571 110.227C554.367 110.227 553.212 109.749 552.361 108.898C551.51 108.046 551.031 106.892 551.031 105.688V102.904H560.201V105.688C560.201 106.292 560.08 106.89 559.847 107.446C559.613 108.003 559.27 108.507 558.839 108.93C558.408 109.353 557.897 109.685 557.336 109.908C556.774 110.131 556.174 110.239 555.571 110.227Z" fill="#F2B705"/>
<path d="M561.275 81.5999H549.851V104.689H561.275V81.5999Z" fill="#2C2C4F"/>
<path d="M551.591 90.7086H559.535" stroke="#F2B705" stroke-width="0.45" stroke-linecap="round" stroke-linejoin="round"/>
<path d="M551.591 94.113H559.535" stroke="#F2B705" stroke-width="0.45" stroke-linecap="round" stroke-linejoin="round"/>
<path d="M551.591 98.1831H559.535" stroke="#F2B705" stroke-width="0.45" stroke-linecap="round" stroke-linejoin="round"/>
<path d="M555.48 12.9519L543.602 21.1073V34.8611L547.173 37.8873C547.173 37.8873 545.009 40.2779 543.602 41.9423V74.897H567.539V21.0619L555.48 12.9519Z" fill="white"/>
<path d="M555.571 75.1239V19.3521" stroke="#2C2C4F" stroke-width="0.45" stroke-linecap="round" stroke-linejoin="round"/>
<path d="M565.42 63.0634L555.577 53.2203L545.734 63.0634L555.577 72.9065L565.42 63.0634Z" fill="url(#paint6_linear_62_24)"/>
<path d="M591.052 74.2766L588.919 70.4485L587.905 71.8103H584.848L572.88 66.6356L555.571 75.1239L538.246 66.6356L526.293 71.8103H523.236L522.207 70.4485L520.089 74.2766H532.648L555.404 86.0634L555.571 86.1542L555.737 86.0634L578.494 74.2766H591.052Z" fill="#F2B705"/>
<path d="M526.293 71.8103L538.337 68.8447L555.904 77.8323L573.485 68.8447L584.849 71.8103" stroke="#2C2C4F" stroke-width="0.45" stroke-linecap="round" stroke-linejoin="round"/>
<g style="mix-blend-mode:multiply">
<path d="M588.934 70.4486L587.905 71.8103H584.879L572.91 66.6356L567.569 69.2532V21.0619L555.465 12.9065V74.8667H555.056L555.495 75.0785V110.227H555.586C556.79 110.227 557.944 109.749 558.795 108.898C559.647 108.046 560.125 106.892 560.125 105.688V104.72H561.26V83.1886L578.463 74.2766H591.022L588.934 70.4486Z" fill="#B6B6B6"/>
</g>
<g style="mix-blend-mode:color-dodge">
<path style="mix-blend-mode:color-dodge" d="M554.587 2.04263C566.252 2.0576 577.65 5.52927 587.343 12.0191C597.035 18.5089 604.587 27.7257 609.044 38.5053C613.501 49.2848 614.663 61.1434 612.384 72.5831C610.104 84.0228 604.486 94.5304 596.238 102.779C587.989 111.027 577.482 116.645 566.042 118.925C554.602 121.204 542.744 120.042 531.964 115.585C521.185 111.128 511.968 103.576 505.478 93.8836C498.988 84.1911 495.517 72.7926 495.502 61.128C495.522 45.4638 501.753 30.4468 512.829 19.3705C523.906 8.29414 538.923 2.06265 554.587 2.04263ZM554.587 1.87349e-06C542.496 -0.00299086 530.676 3.57955 520.622 10.2946C510.568 17.0096 502.73 26.5554 498.101 37.7249C493.472 48.8943 492.26 61.1856 494.617 73.0442C496.974 84.9029 502.794 95.7963 511.343 104.347C519.891 112.897 530.783 118.721 542.641 121.08C554.499 123.44 566.791 122.231 577.961 117.604C589.132 112.978 598.679 105.143 605.397 95.0905C612.115 85.0377 615.7 73.2187 615.7 61.128C615.7 44.9185 609.262 29.3726 597.801 17.9093C586.341 6.44605 570.797 0.00401414 554.587 1.87349e-06Z" fill="url(#paint7_linear_62_24)"/>
</g>
<path style="mix-blend-mode:multiply" d="M88.6221 133.982L23.6812 171.264V218.291L89.8628 257.751L154.486 219.531V172.505L88.6221 133.982Z" fill="url(#paint8_linear_62_24)"/>
<path d="M268.874 214.402L230.245 237.083L127.841 178.255" stroke="#0077E1" stroke-width="0.7" stroke-linecap="round" stroke-linejoin="round"/>
<path d="M235.919 235.661C235.919 237.809 233.302 239.564 230.079 239.564C226.856 239.564 224.223 237.809 224.223 235.661C224.223 233.512 226.841 231.772 230.079 231.772C233.317 231.772 235.919 233.512 235.919 235.661Z" fill="#0077E1"/>
<path d="M177.5 173.822L89.7114 122.483L3.17896 172.172L91.3758 222.679L177.5 173.822Z" stroke="#0077E1" stroke-width="0.7" stroke-linecap="round" stroke-linejoin="round"/>
<g style="mix-blend-mode:color-dodge">
<path style="mix-blend-mode:color-dodge" d="M89.7114 122.483L177.47 173.821L91.3758 222.678L3.17896 172.172L89.7114 122.483ZM89.7114 119.29C89.1795 119.302 88.659 119.448 88.1984 119.714L1.59024 169.403C1.10655 169.684 0.705063 170.087 0.425978 170.571C0.146893 171.056 0 171.605 0 172.165C0 172.724 0.146893 173.273 0.425978 173.758C0.705063 174.243 1.10655 174.645 1.59024 174.926L89.7871 225.447C90.2504 225.707 90.7692 225.853 91.3002 225.871C91.833 225.866 92.355 225.719 92.8132 225.447L178.937 176.59C179.421 176.31 179.822 175.907 180.101 175.422C180.381 174.938 180.527 174.388 180.527 173.829C180.527 173.27 180.381 172.72 180.101 172.236C179.822 171.751 179.421 171.348 178.937 171.068L91.1791 119.729C90.6871 119.444 90.1289 119.293 89.5601 119.29H89.7114Z" fill="url(#paint9_linear_62_24)"/>
</g>
<path d="M91.1185 209.893V161.324L24.9368 123.406V170.432L91.1185 209.893Z" fill="url(#paint10_linear_62_24)"/>
<path d="M91.1187 161.324V209.893L155.742 171.688V124.647L91.1187 161.324Z" fill="url(#paint11_linear_62_24)"/>
<path d="M155.742 124.647L89.8777 86.1239L24.9368 123.406L91.1185 161.324L155.742 124.647Z" fill="url(#paint12_linear_62_24)"/>
<path d="M149.523 124.753L90.8464 157.919L30.5505 124.299L90.3773 90.2092L149.523 124.753Z" fill="url(#paint13_radial_62_24)"/>
<g style="mix-blend-mode:color-dodge">
<path style="mix-blend-mode:color-dodge" d="M90.5438 2.04263C102.212 2.04264 113.618 5.5016 123.32 11.9823C133.022 18.4631 140.586 27.6747 145.054 38.4529C149.523 49.2311 150.696 61.0921 148.425 72.5368C146.154 83.9815 140.542 94.4962 132.297 102.752C124.052 111.007 113.544 116.634 102.102 118.919C90.6606 121.204 78.7981 120.047 68.0142 115.592C57.2302 111.137 48.0089 103.586 41.5158 93.8914C35.0226 84.1973 31.5491 72.7958 31.5341 61.128C31.5501 45.4756 37.7699 30.4678 48.8307 19.3927C59.8916 8.3177 74.8915 2.07866 90.5438 2.04263ZM90.5438 1.87372e-06C78.4539 1.87372e-06 66.6354 3.58509 56.5829 10.3019C46.5305 17.0188 38.6955 26.5657 34.0689 37.7354C29.4423 48.905 28.2317 61.1959 30.5904 73.0535C32.949 84.9112 38.7709 95.8032 47.3198 104.352C55.8687 112.901 66.7607 118.723 78.6184 121.082C90.476 123.44 102.767 122.23 113.937 117.603C125.106 112.976 134.653 105.141 141.37 95.089C148.087 85.0365 151.672 73.218 151.672 61.128C151.674 53.1 150.094 45.1503 147.023 37.733C143.952 30.3157 139.449 23.5762 133.772 17.8996C128.096 12.2229 121.356 7.72031 113.939 4.64904C106.522 1.57777 98.5719 -0.001986 90.5438 1.87372e-06Z" fill="url(#paint14_linear_62_24)"/>
</g>
<path d="M73.219 32.4402C73.5876 29.5069 75.0262 26.8128 77.2589 24.8749C78.763 23.8178 80.376 22.925 82.0705 22.2119C84.5422 20.9929 86.8757 19.5117 89.0306 17.7937C90.3848 16.7865 91.5436 15.5405 92.4501 14.1169C92.9064 13.4042 93.2081 12.6037 93.3358 11.7671C93.4635 10.9305 93.4144 10.0764 93.1915 9.25998C97.4886 13.0578 102.028 17.1885 103.45 22.7414C103.957 25.1476 104.155 27.6085 104.04 30.0647C104.04 34.3013 103.904 38.8254 101.483 42.2752C100.709 43.3091 99.8373 44.2667 98.8807 45.1349C98.6525 45.3693 98.3865 45.5636 98.0939 45.7098C97.7316 45.8205 97.3507 45.8566 96.9742 45.8158C91.8007 45.6719 86.6232 45.8134 81.4652 46.2394C79.7252 46.3605 78.3029 46.6782 77.0319 45.3013C75.5334 43.5595 74.4236 41.5181 73.7766 39.3134C73.1295 37.1086 72.96 34.7913 73.2795 32.5159L73.219 32.4402Z" fill="white"/>
<path d="M90.453 114.328H87.79C87.0725 114.329 86.3797 114.065 85.8439 113.588C85.308 113.111 84.9667 112.453 84.8849 111.74L80.2549 72.5971H96.8987L93.4337 111.725C93.3542 112.454 93.0035 113.126 92.4513 113.608C91.8991 114.09 91.1858 114.347 90.453 114.328Z" fill="#B5B5B5"/>
<path d="M82.4336 75.1239H94.2507" stroke="#2C2C4F" stroke-width="0.36" stroke-linecap="round" stroke-linejoin="round"/>
<path d="M98.7899 65.8185H78.2878V69.9795H98.7899V65.8185Z" fill="#2C2C4F"/>
<path d="M97.6551 69.6012H79.4226V73.3082H97.6551V69.6012Z" fill="#F2B705"/>
<path d="M89.5451 54.637L88.5465 54.4403L87.5327 54.637L75.2012 54.41L78.1365 55.6961L78.9687 66.0758H87.5327H89.5451H98.1091L98.9412 55.6961L101.892 54.41L89.5451 54.637Z" fill="#2C2C4F"/>
<path d="M78.1367 55.6961L88.6072 55.9836L98.9414 55.6961" stroke="#2C2C4F" stroke-width="0.36" stroke-linecap="round" stroke-linejoin="round"/>
<path d="M78.772 45.2408V35.3604" stroke="#2C2C4F" stroke-width="0.36" stroke-linecap="round" stroke-linejoin="round"/>
<path d="M83.4019 45.5585V33.0908" stroke="#2C2C4F" stroke-width="0.36" stroke-linecap="round" stroke-linejoin="round"/>
<path d="M88.6069 45.4829V30.9725" stroke="#2C2C4F" stroke-width="0.36" stroke-linecap="round" stroke-linejoin="round"/>
<path d="M94.0691 45.2408V30.0042" stroke="#2C2C4F" stroke-width="0.36" stroke-linecap="round" stroke-linejoin="round"/>
<path d="M98.1091 44.9836V28.2641" stroke="#2C2C4F" stroke-width="0.36" stroke-linecap="round" stroke-linejoin="round"/>
<path d="M101.514 54.7277H75.5644L74.3237 44.3481H102.754L101.514 54.7277Z" fill="#2C2C4F"/>
<g style="mix-blend-mode:multiply">
<g style="mix-blend-mode:multiply">
<path d="M99.6221 44.3481C100.287 43.7114 100.894 43.0178 101.438 42.2752C103.859 38.8254 103.965 34.3013 103.995 30.0647C104.109 27.6085 103.911 25.1476 103.405 22.7414C101.982 17.1885 97.4432 13.0578 93.1461 9.25998C93.369 10.0764 93.4181 10.9305 93.2904 11.7671C93.1627 12.6037 92.861 13.4042 92.4047 14.1169C91.5117 15.5366 90.3685 16.7824 89.0306 17.7937L88.5312 18.1568V114.328H90.4075C91.1556 114.332 91.8788 114.059 92.4377 113.562C92.9965 113.065 93.3513 112.378 93.4336 111.634L96.8229 73.2326H97.7156V69.919H98.8504V65.758H98.109L98.9109 55.6356L101.105 54.6672H101.483V54.5008L101.831 54.3495H101.498L102.694 44.2876L99.6221 44.3481Z" fill="#B6B6B6"/>
</g>
</g>
<path style="mix-blend-mode:multiply" d="M155.621 288.421L90.6948 325.703V372.73L156.877 412.191L221.5 373.97V326.944L155.621 288.421Z" fill="url(#paint15_linear_62_24)"/>
<path d="M313.192 240.729L233.756 286.197L146.421 332.785" stroke="#0077E1" stroke-width="0.7" stroke-linecap="round" stroke-linejoin="round"/>
<path d="M232.212 283.368C232.212 285.531 234.83 287.271 238.068 287.271C241.306 287.271 243.908 285.531 243.908 283.368C243.908 281.204 241.291 279.479 238.068 279.479C234.845 279.479 232.212 281.219 232.212 283.368Z" fill="#0077E1"/>
<path d="M241.125 326.884L153.336 275.545L66.8037 325.234L155.001 375.741L241.125 326.884Z" stroke="#0077E1" stroke-width="0.7" stroke-linecap="round" stroke-linejoin="round"/>
<g style="mix-blend-mode:color-dodge">
<path style="mix-blend-mode:color-dodge" d="M153.336 275.545L241.094 326.884L155 375.741L66.8034 325.234L153.336 275.545ZM153.336 272.353C152.779 272.359 152.233 272.504 151.747 272.776L65.2147 322.466C64.7312 322.748 64.3302 323.153 64.0514 323.638C63.7727 324.124 63.626 324.674 63.626 325.234C63.6245 325.797 63.7722 326.349 64.0539 326.836C64.3357 327.322 64.7415 327.725 65.2298 328.003L153.412 378.51C153.872 378.776 154.393 378.922 154.925 378.933C155.455 378.924 155.975 378.784 156.438 378.525L242.562 329.668C243.045 329.385 243.446 328.981 243.725 328.495C244.003 328.009 244.15 327.459 244.15 326.899C244.15 326.339 244.003 325.789 243.725 325.303C243.446 324.817 243.045 324.413 242.562 324.13L154.804 272.791C154.312 272.506 153.753 272.355 153.185 272.353H153.336Z" fill="url(#paint16_linear_62_24)"/>
</g>
<path d="M157.179 366.435V317.851L90.9976 279.933V326.974L157.179 366.435Z" fill="url(#paint17_linear_62_24)"/>
<path d="M157.179 317.851V366.435L221.802 328.215V281.189L157.179 317.851Z" fill="url(#paint18_linear_62_24)"/>
<path d="M221.802 281.189L155.939 242.651L90.9976 279.933L157.179 317.851L221.802 281.189Z" fill="url(#paint19_linear_62_24)"/>
<path d="M215.887 280.765L157.21 313.932L96.9138 280.296L156.756 246.207L215.887 280.765Z" fill="url(#paint20_radial_62_24)"/>
<path d="M189.027 237.039C193.632 217.314 181.374 197.59 161.648 192.985C141.923 188.38 122.199 200.638 117.594 220.364C112.989 240.089 125.247 259.813 144.973 264.418C164.699 269.023 184.422 256.765 189.027 237.039Z" fill="#2C2C4F"/>
<path d="M153.321 262.926C172.206 262.926 187.516 247.616 187.516 228.731C187.516 209.845 172.206 194.535 153.321 194.535C134.435 194.535 119.125 209.845 119.125 228.731C119.125 247.616 134.435 262.926 153.321 262.926Z" fill="#F2B705"/>
<path d="M177.712 228.746L139.34 206.595V250.882L177.712 228.746Z" fill="white"/>
<g style="mix-blend-mode:multiply">
<path d="M153.321 192.069V265.408C158.199 265.507 163.048 264.632 167.584 262.833C172.119 261.035 176.251 258.35 179.736 254.935C183.221 251.52 185.989 247.444 187.879 242.946C189.769 238.448 190.743 233.617 190.743 228.738C190.743 223.859 189.769 219.029 187.879 214.531C185.989 210.033 183.221 205.957 179.736 202.542C176.251 199.127 172.119 196.442 167.584 194.644C163.048 192.845 158.199 191.97 153.321 192.069Z" fill="#B6B6B6"/>
</g>
<g style="mix-blend-mode:color-dodge">
<path style="mix-blend-mode:color-dodge" d="M153.321 169.645C165.007 169.645 176.43 173.111 186.147 179.603C195.864 186.095 203.437 195.323 207.909 206.12C212.381 216.916 213.551 228.796 211.271 240.258C208.991 251.719 203.364 262.247 195.101 270.511C186.837 278.774 176.309 284.401 164.848 286.681C153.386 288.961 141.506 287.791 130.71 283.319C119.913 278.847 110.686 271.273 104.193 261.557C97.7008 251.84 94.2355 240.417 94.2355 228.731C94.2556 213.067 100.487 198.05 111.563 186.973C122.64 175.897 137.657 169.665 153.321 169.645ZM153.321 167.618C141.23 167.615 129.409 171.198 119.354 177.914C109.3 184.629 101.462 194.176 96.8337 205.346C92.2052 216.517 90.9934 228.809 93.3516 240.668C95.7097 252.527 101.532 263.42 110.082 271.97C118.632 280.52 129.525 286.342 141.384 288.7C153.243 291.058 165.535 289.846 176.705 285.218C187.876 280.589 197.423 272.752 204.138 262.697C210.854 252.643 214.437 240.822 214.434 228.731C214.434 212.523 207.995 196.978 196.534 185.517C185.073 174.057 169.529 167.618 153.321 167.618Z" fill="url(#paint21_linear_62_24)"/>
</g>
<path style="mix-blend-mode:multiply" d="M492.249 288.421L427.308 325.703V372.73L493.489 412.191L558.128 373.97V326.944L492.249 288.421Z" fill="url(#paint22_linear_62_24)"/>
<path d="M328.444 235.6L416.52 286.197L503.854 332.785" stroke="#0077E1" stroke-width="0.7" stroke-linecap="round" stroke-linejoin="round"/>
<path d="M418.063 283.368C418.063 285.531 415.445 287.271 412.207 287.271C408.969 287.271 406.367 285.531 406.367 283.368C406.367 281.204 408.985 279.479 412.207 279.479C415.43 279.479 418.063 281.219 418.063 283.368Z" fill="#0077E1"/>
<path d="M576.98 326.884L489.207 275.545L402.675 325.234L490.872 375.741L576.98 326.884Z" stroke="#0077E1" stroke-width="0.7" stroke-linecap="round" stroke-linejoin="round"/>
<g style="mix-blend-mode:color-dodge">
<path style="mix-blend-mode:color-dodge" d="M489.207 275.545L576.965 326.884L490.856 375.741L402.66 325.234L489.192 275.545H489.207ZM489.192 272.353C488.635 272.359 488.089 272.504 487.603 272.776L401.071 322.466C400.584 322.745 400.179 323.148 399.897 323.635C399.616 324.121 399.468 324.673 399.468 325.234C399.468 325.796 399.616 326.348 399.897 326.834C400.179 327.32 400.584 327.724 401.071 328.003L489.268 378.51C489.748 378.795 490.298 378.941 490.856 378.933C491.386 378.921 491.905 378.781 492.37 378.525L578.478 329.668C578.966 329.388 579.37 328.985 579.652 328.499C579.934 328.012 580.082 327.461 580.082 326.899C580.082 326.337 579.934 325.785 579.652 325.299C579.37 324.813 578.966 324.41 578.478 324.13L490.72 272.791C490.228 272.506 489.67 272.355 489.101 272.353H489.192Z" fill="url(#paint23_linear_62_24)"/>
</g>
<path d="M493.051 366.435V317.851L426.869 279.933V326.974L493.051 366.435Z" fill="url(#paint24_linear_62_24)"/>
<path d="M493.051 317.851V366.435L557.674 328.215V281.189L493.051 317.851Z" fill="url(#paint25_linear_62_24)"/>
<path d="M557.674 281.189L491.81 242.651L426.869 279.933L493.051 317.851L557.674 281.189Z" fill="url(#paint26_linear_62_24)"/>
<path d="M551.758 280.765L493.081 313.932L432.785 280.296L492.627 246.207L551.758 280.765Z" fill="url(#paint27_radial_62_24)"/>
<g style="mix-blend-mode:color-dodge">
<path style="mix-blend-mode:color-dodge" d="M489.177 169.645C500.866 169.63 512.297 173.083 522.024 179.566C531.75 186.05 539.335 195.272 543.819 206.067C548.302 216.862 549.483 228.745 547.212 240.211C544.941 251.678 539.319 262.213 531.059 270.484C522.799 278.754 512.271 284.389 500.807 286.675C489.344 288.961 477.46 287.796 466.659 283.326C455.858 278.856 446.626 271.283 440.13 261.565C433.634 251.847 430.167 240.42 430.167 228.731C430.183 213.078 436.403 198.07 447.464 186.995C458.525 175.92 473.524 169.681 489.177 169.645ZM489.177 167.618C477.086 167.618 465.267 171.203 455.214 177.921C445.162 184.638 437.327 194.186 432.701 205.357C428.074 216.527 426.865 228.819 429.225 240.677C431.584 252.535 437.408 263.427 445.958 271.975C454.509 280.524 465.402 286.344 477.261 288.701C489.119 291.058 501.411 289.845 512.58 285.217C523.749 280.588 533.295 272.75 540.01 262.696C546.725 252.641 550.308 240.821 550.305 228.731C550.305 220.704 548.724 212.756 545.652 205.34C542.579 197.925 538.076 191.187 532.4 185.512C526.724 179.837 519.985 175.336 512.568 172.265C505.152 169.195 497.204 167.616 489.177 167.618Z" fill="url(#paint28_linear_62_24)"/>
</g>
<path d="M501.161 196.926H477.194C464.241 196.926 453.741 207.426 453.741 220.379V237.113C453.741 250.066 464.241 260.566 477.194 260.566H501.161C514.113 260.566 524.613 250.066 524.613 237.113V220.379C524.613 207.426 514.113 196.926 501.161 196.926Z" fill="#2C2C4F"/>
<path d="M501.161 198.923H477.194C465.344 198.923 455.738 208.529 455.738 220.379V237.113C455.738 248.963 465.344 258.569 477.194 258.569H501.161C513.01 258.569 522.616 248.963 522.616 237.113V220.379C522.616 208.529 513.01 198.923 501.161 198.923Z" fill="#F2B705"/>
<path d="M507.606 209.969V209.212L478.51 212.238V212.677H478.358V233.754C476.795 232.817 474.966 232.418 473.154 232.618C471.342 232.819 469.645 233.608 468.324 234.865C467.004 236.122 466.131 237.777 465.841 239.578C465.551 241.378 465.859 243.223 466.717 244.832C467.576 246.44 468.939 247.723 470.596 248.483C472.254 249.243 474.115 249.439 475.894 249.04C477.673 248.642 479.273 247.671 480.448 246.276C481.622 244.882 482.308 243.141 482.398 241.319C482.398 241.183 482.398 241.047 482.398 240.911C482.398 240.775 482.398 240.639 482.398 240.502V223.344L503.581 221.105V230.531C502.284 229.736 500.791 229.317 499.269 229.321C497.658 229.32 496.082 229.785 494.729 230.66C493.377 231.535 492.306 232.782 491.646 234.251C490.986 235.721 490.765 237.349 491.01 238.941C491.254 240.534 491.954 242.021 493.025 243.224C494.095 244.428 495.491 245.296 497.044 245.724C498.597 246.153 500.24 246.123 501.776 245.639C503.313 245.154 504.676 244.236 505.702 242.995C506.729 241.753 507.374 240.241 507.561 238.641V209.893L507.606 209.969ZM482.429 220V216.868L503.612 214.629V217.761L482.429 220Z" fill="white"/>
<g style="mix-blend-mode:multiply">
<path d="M499.163 196.926H487.195V260.551H499.163C505.382 260.547 511.345 258.074 515.742 253.677C520.14 249.28 522.612 243.317 522.616 237.098V220.379C522.612 214.16 520.14 208.197 515.742 203.8C511.345 199.402 505.382 196.93 499.163 196.926Z" fill="#B6B6B6"/>
</g>
<path style="mix-blend-mode:multiply" d="M321.423 166.604L256.497 203.886V250.912L322.679 290.373L387.302 252.168V205.127L321.423 166.604Z" fill="url(#paint29_linear_62_24)"/>
<path d="M409.045 209.712L321.272 158.373L234.739 208.047L322.936 258.569L409.045 209.712Z" stroke="#0077E1" stroke-width="0.7" stroke-linecap="round" stroke-linejoin="round"/>
<g style="mix-blend-mode:color-dodge">
<path style="mix-blend-mode:color-dodge" d="M321.272 158.373L409.03 209.712L322.921 258.569L234.739 208.047L321.272 158.373ZM321.272 155.18C320.714 155.179 320.166 155.325 319.683 155.604L233.151 205.293C232.663 205.571 232.258 205.973 231.976 206.458C231.694 206.943 231.545 207.494 231.545 208.055C231.545 208.616 231.694 209.167 231.976 209.652C232.258 210.137 232.663 210.538 233.151 210.816L321.347 261.337C321.828 261.615 322.374 261.761 322.929 261.761C323.484 261.761 324.029 261.615 324.51 261.337L410.619 212.48C411.102 212.2 411.504 211.797 411.783 211.312C412.062 210.828 412.209 210.278 412.209 209.719C412.209 209.16 412.062 208.61 411.783 208.126C411.504 207.641 411.102 207.238 410.619 206.958L322.861 155.619C322.369 155.334 321.81 155.183 321.242 155.18H321.272Z" fill="url(#paint30_linear_62_24)"/>
</g>
<path d="M322.679 245.783V197.198L256.497 159.296V206.322L322.679 245.783Z" fill="url(#paint31_linear_62_24)"/>
<path d="M322.679 197.198V245.783L387.302 207.563V160.537L322.679 197.198Z" fill="url(#paint32_linear_62_24)"/>
<path d="M387.302 160.537L321.423 122.014L256.497 159.296L322.679 197.198L387.302 160.537Z" fill="url(#paint33_linear_62_24)"/>
<path d="M381.386 160.113L322.709 193.28L262.413 159.659L322.24 125.57L381.386 160.113Z" fill="url(#paint34_radial_62_24)"/>
<g style="mix-blend-mode:color-dodge">
<path style="mix-blend-mode:color-dodge" d="M322.406 150.641C332.014 150.641 340.14 154.863 340.14 159.841C340.14 164.819 332.014 169.055 322.406 169.055C312.798 169.055 304.688 164.834 304.688 159.841C304.688 154.848 312.798 150.641 322.406 150.641ZM322.406 148.614C311.497 148.614 302.646 153.637 302.646 159.841C302.646 166.044 311.497 171.083 322.406 171.083C333.316 171.083 342.167 166.059 342.167 159.841C342.167 153.622 333.331 148.614 322.406 148.614Z" fill="url(#paint35_linear_62_24)"/>
</g>
<path d="M357.721 103.509L321.892 54.5613L286.062 103.509L321.892 124.813L357.721 103.509Z" fill="#F2B705"/>
<path d="M321.892 127.522L286.062 106.202L321.892 155.15L357.721 106.202L321.892 127.522Z" fill="#F2B705"/>
<g style="mix-blend-mode:multiply">
<g style="mix-blend-mode:multiply">
<path d="M321.892 54.5613V124.813L357.722 103.509L321.892 54.5613Z" fill="#B6B6B6"/>
</g>
<g style="mix-blend-mode:multiply">
<path d="M321.892 155.15L357.722 106.202L321.892 127.522V155.15Z" fill="#B6B6B6"/>
</g>
</g>
<g style="mix-blend-mode:soft-light">
<path d="M319.017 64.9258C319.017 65.41 293.295 101.648 293.295 101.648L319.184 117.127L319.017 64.9258Z" fill="#F2B705"/>
</g>
<g style="mix-blend-mode:soft-light">
<path d="M318.654 129.489L318.866 146.753L293.234 113.586L318.654 129.489Z" fill="#F2B705"/>
</g>
<defs>
<linearGradient id="paint0_linear_62_24" x1="621.253" y1="150.732" x2="459.4" y2="252.244" gradientUnits="userSpaceOnUse">
<stop stop-color="#040849"/>
<stop offset="0.07" stop-color="#03175D"/>
<stop offset="0.53" stop-color="#0077E1"/>
<stop offset="1" stop-color="#01FFCA"/>
</linearGradient>
<linearGradient id="paint1_linear_62_24" x1="463.107" y1="172.581" x2="643.798" y2="172.581" gradientUnits="userSpaceOnUse">
<stop stop-color="#FEFFFF"/>
<stop offset="0.5" stop-opacity="0"/>
<stop offset="1" stop-color="#FEFFFF"/>
</linearGradient>
<linearGradient id="paint2_linear_62_24" x1="556.04" y1="180.54" x2="413.251" y2="123.709" gradientUnits="userSpaceOnUse">
<stop stop-color="#0063BC"/>
<stop offset="0.07" stop-color="#0077E1"/>
<stop offset="0.53" stop-color="#FDA0FF"/>
<stop offset="1" stop-color="#FC54FF"/>
</linearGradient>
<linearGradient id="paint3_linear_62_24" x1="558.325" y1="191.343" x2="639.561" y2="119.835" gradientUnits="userSpaceOnUse">
<stop stop-color="#0077E1"/>
<stop offset="0.53" stop-color="#FDA0FF"/>
<stop offset="1" stop-color="#FC54FF"/>
</linearGradient>
<linearGradient id="paint4_linear_62_24" x1="608.679" y1="89.3921" x2="476.755" y2="172.142" gradientUnits="userSpaceOnUse">
<stop stop-color="#040849"/>
<stop offset="0.07" stop-color="#03175D"/>
<stop offset="0.53" stop-color="#0077E1"/>
<stop offset="1" stop-color="#01FFCA"/>
</linearGradient>
<radialGradient id="paint5_radial_62_24" cx="0" cy="0" r="1" gradientUnits="userSpaceOnUse" gradientTransform="translate(579.84 108.396) scale(161.535 161.535)">
<stop stop-color="#0077E1"/>
<stop offset="0.47" stop-color="#FDA0FF"/>
<stop offset="1" stop-color="#010413"/>
</radialGradient>
<linearGradient id="paint6_linear_62_24" x1="555.58" y1="45.0073" x2="555.58" y2="74.3609" gradientUnits="userSpaceOnUse">
<stop stop-color="#040849"/>
<stop offset="0.53" stop-color="#0077E1"/>
<stop offset="1" stop-color="#01FFCA"/>
</linearGradient>
<linearGradient id="paint7_linear_62_24" x1="554.587" y1="122.256" x2="554.587" y2="0" gradientUnits="userSpaceOnUse">
<stop stop-color="#FEFFFF"/>
<stop offset="0.5" stop-opacity="0"/>
<stop offset="1" stop-color="#FEFFFF"/>
</linearGradient>
<linearGradient id="paint8_linear_62_24" x1="156.831" y1="152.896" x2="-5.02181" y2="254.423" gradientUnits="userSpaceOnUse">
<stop stop-color="#040849"/>
<stop offset="0.07" stop-color="#03175D"/>
<stop offset="0.53" stop-color="#0077E1"/>
<stop offset="1" stop-color="#01FFCA"/>
</linearGradient>
<linearGradient id="paint9_linear_62_24" x1="0.00151736" y1="172.581" x2="180.677" y2="172.581" gradientUnits="userSpaceOnUse">
<stop stop-color="#FEFFFF"/>
<stop offset="0.5" stop-opacity="0"/>
<stop offset="1" stop-color="#FEFFFF"/>
</linearGradient>
<linearGradient id="paint10_linear_62_24" x1="92.919" y1="180.54" x2="-49.8694" y2="123.709" gradientUnits="userSpaceOnUse">
<stop stop-color="#0F64D2"/>
<stop offset="0.53" stop-color="#F187FB"/>
<stop offset="1" stop-color="#FC54FF"/>
</linearGradient>
<linearGradient id="paint11_linear_62_24" x1="95.2039" y1="191.343" x2="176.456" y2="119.835" gradientUnits="userSpaceOnUse">
<stop stop-color="#1066D2"/>
<stop offset="0.53" stop-color="#FDA0FF"/>
<stop offset="1" stop-color="#FC54FF"/>
</linearGradient>
<linearGradient id="paint12_linear_62_24" x1="145.559" y1="89.3921" x2="13.6341" y2="172.142" gradientUnits="userSpaceOnUse">
<stop stop-color="#040849"/>
<stop offset="0.07" stop-color="#03175D"/>
<stop offset="0.53" stop-color="#0077E1"/>
<stop offset="1" stop-color="#01FFCA"/>
</linearGradient>
<radialGradient id="paint13_radial_62_24" cx="0" cy="0" r="1" gradientUnits="userSpaceOnUse" gradientTransform="translate(116.417 108.865) scale(161.535 161.535)">
<stop stop-color="#0077E1"/>
<stop offset="0.47" stop-color="#FDA0FF"/>
<stop offset="1" stop-color="#010413"/>
</radialGradient>
<linearGradient id="paint14_linear_62_24" x1="90.6044" y1="122.256" x2="90.6044" y2="0" gradientUnits="userSpaceOnUse">
<stop stop-color="#FEFFFF"/>
<stop offset="0.5" stop-opacity="0"/>
<stop offset="1" stop-color="#FEFFFF"/>
</linearGradient>
<linearGradient id="paint15_linear_62_24" x1="223.845" y1="307.35" x2="61.9919" y2="408.862" gradientUnits="userSpaceOnUse">
<stop stop-color="#040849"/>
<stop offset="0.07" stop-color="#03175D"/>
<stop offset="0.53" stop-color="#0077E1"/>
<stop offset="1" stop-color="#01FFCA"/>
</linearGradient>
<linearGradient id="paint16_linear_62_24" x1="63.626" y1="325.643" x2="244.302" y2="325.643" gradientUnits="userSpaceOnUse">
<stop stop-color="#FEFFFF"/>
<stop offset="0.5" stop-opacity="0"/>
<stop offset="1" stop-color="#FEFFFF"/>
</linearGradient>
<linearGradient id="paint17_linear_62_24" x1="158.98" y1="337.082" x2="16.1914" y2="280.236" gradientUnits="userSpaceOnUse">
<stop stop-color="#0077E1"/>
<stop offset="0.53" stop-color="#FDA0FF"/>
<stop offset="1" stop-color="#FC54FF"/>
</linearGradient>
<linearGradient id="paint18_linear_62_24" x1="161.264" y1="347.87" x2="242.516" y2="276.377" gradientUnits="userSpaceOnUse">
<stop stop-color="#0077E1"/>
<stop offset="0.53" stop-color="#FDA0FF"/>
<stop offset="1" stop-color="#FC54FF"/>
</linearGradient>
<linearGradient id="paint19_linear_62_24" x1="211.635" y1="245.919" x2="79.71" y2="328.669" gradientUnits="userSpaceOnUse">
<stop stop-color="#040849"/>
<stop offset="0.07" stop-color="#03175D"/>
<stop offset="0.53" stop-color="#0077E1"/>
<stop offset="1" stop-color="#01FFCA"/>
</linearGradient>
<radialGradient id="paint20_radial_62_24" cx="0" cy="0" r="1" gradientUnits="userSpaceOnUse" gradientTransform="translate(182.781 264.878) scale(161.535 161.535)">
<stop stop-color="#0077E1"/>
<stop offset="0.47" stop-color="#FDA0FF"/>
<stop offset="1" stop-color="#010413"/>
</radialGradient>
<linearGradient id="paint21_linear_62_24" x1="153.321" y1="289.859" x2="153.321" y2="167.618" gradientUnits="userSpaceOnUse">
<stop stop-color="#FEFFFF"/>
<stop offset="0.5" stop-opacity="0"/>
<stop offset="1" stop-color="#FEFFFF"/>
</linearGradient>
<linearGradient id="paint22_linear_62_24" x1="560.473" y1="307.35" x2="398.62" y2="408.862" gradientUnits="userSpaceOnUse">
<stop stop-color="#040849"/>
<stop offset="0.07" stop-color="#03175D"/>
<stop offset="0.53" stop-color="#0077E1"/>
<stop offset="1" stop-color="#01FFCA"/>
</linearGradient>
<linearGradient id="paint23_linear_62_24" x1="399.482" y1="325.643" x2="580.173" y2="325.643" gradientUnits="userSpaceOnUse">
<stop stop-color="#FEFFFF"/>
<stop offset="0.5" stop-opacity="0"/>
<stop offset="1" stop-color="#FEFFFF"/>
</linearGradient>
<linearGradient id="paint24_linear_62_24" x1="494.851" y1="337.082" x2="352.063" y2="280.236" gradientUnits="userSpaceOnUse">
<stop stop-color="#0070D3"/>
<stop offset="0.07" stop-color="#0077E1"/>
<stop offset="0.53" stop-color="#FDA0FF"/>
<stop offset="1" stop-color="#FC54FF"/>
</linearGradient>
<linearGradient id="paint25_linear_62_24" x1="497.136" y1="347.87" x2="578.388" y2="276.377" gradientUnits="userSpaceOnUse">
<stop stop-color="#0077E1"/>
<stop offset="0.53" stop-color="#FDA0FF"/>
<stop offset="1" stop-color="#FC54FF"/>
</linearGradient>
<linearGradient id="paint26_linear_62_24" x1="547.491" y1="245.919" x2="415.566" y2="328.669" gradientUnits="userSpaceOnUse">
<stop stop-color="#040849"/>
<stop offset="0.07" stop-color="#03175D"/>
<stop offset="0.53" stop-color="#0077E1"/>
<stop offset="1" stop-color="#01FFCA"/>
</linearGradient>
<radialGradient id="paint27_radial_62_24" cx="0" cy="0" r="1" gradientUnits="userSpaceOnUse" gradientTransform="translate(518.652 264.878) scale(161.535 161.535)">
<stop stop-color="#0077E1"/>
<stop offset="0.47" stop-color="#FDA0FF"/>
<stop offset="1" stop-color="#010413"/>
</radialGradient>
<linearGradient id="paint28_linear_62_24" x1="489.177" y1="289.859" x2="489.177" y2="167.618" gradientUnits="userSpaceOnUse">
<stop stop-color="#FEFFFF"/>
<stop offset="0.5" stop-opacity="0"/>
<stop offset="1" stop-color="#FEFFFF"/>
</linearGradient>
<linearGradient id="paint29_linear_62_24" x1="389.647" y1="185.533" x2="227.794" y2="287.045" gradientUnits="userSpaceOnUse">
<stop stop-color="#040849"/>
<stop offset="0.07" stop-color="#03175D"/>
<stop offset="0.53" stop-color="#0077E1"/>
<stop offset="1" stop-color="#01FFCA"/>
</linearGradient>
<linearGradient id="paint30_linear_62_24" x1="231.547" y1="208.471" x2="412.238" y2="208.471" gradientUnits="userSpaceOnUse">
<stop stop-color="#FEFFFF"/>
<stop offset="0.5" stop-opacity="0"/>
<stop offset="1" stop-color="#FEFFFF"/>
</linearGradient>
<linearGradient id="paint31_linear_62_24" x1="256.539" y1="184.907" x2="322.966" y2="219.043" gradientUnits="userSpaceOnUse">
<stop stop-color="#FC54FF"/>
<stop offset="0.51875" stop-color="#E171EE"/>
<stop offset="0.982292" stop-color="#0664D0"/>
</linearGradient>
<linearGradient id="paint32_linear_62_24" x1="326.764" y1="227.233" x2="408.001" y2="155.725" gradientUnits="userSpaceOnUse">
<stop stop-color="#0364CF"/>
<stop offset="0.503125" stop-color="#EB88FB"/>
<stop offset="1" stop-color="#FC54FF"/>
</linearGradient>
<linearGradient id="paint33_linear_62_24" x1="377.119" y1="125.282" x2="245.194" y2="208.032" gradientUnits="userSpaceOnUse">
<stop stop-color="#040849"/>
<stop offset="0.07" stop-color="#03175D"/>
<stop offset="0.53" stop-color="#0077E1"/>
<stop offset="1" stop-color="#01FFCA"/>
</linearGradient>
<radialGradient id="paint34_radial_62_24" cx="0" cy="0" r="1" gradientUnits="userSpaceOnUse" gradientTransform="translate(348.28 144.226) scale(161.535 161.535)">
<stop stop-color="#0077E1"/>
<stop offset="0.47" stop-color="#FDA0FF"/>
<stop offset="1" stop-color="#010413"/>
</radialGradient>
<linearGradient id="paint35_linear_62_24" x1="302.646" y1="159.81" x2="342.167" y2="159.81" gradientUnits="userSpaceOnUse">
<stop stop-color="#FEFFFF"/>
<stop offset="0.5" stop-opacity="0"/>
<stop offset="1" stop-color="#FEFFFF"/>
</linearGradient>
</defs>
</svg>
