<svg width="16" height="10" viewBox="0 0 16 10" fill="none" xmlns="http://www.w3.org/2000/svg">
<path fill-rule="evenodd" clip-rule="evenodd" d="M11.2382 0.829704C12.4585 0.874211 13.6241 1.39241 14.5203 2.28859C15.4168 3.18509 15.9348 4.35052 15.979 5.57059C16.0236 6.79392 15.5902 7.92553 14.7585 8.75723C13.9268 9.58893 12.7952 10.0223 11.5719 9.9777L11.4284 9.97247C11.2 9.96414 10.9821 9.86746 10.8147 9.70009C10.6477 9.53303 10.5507 9.31487 10.5421 9.08665C10.5249 8.61493 10.8946 8.24516 11.3658 8.26234L11.5101 8.26789C12.2759 8.29582 12.9848 8.02449 13.5053 7.50397C14.0258 6.98344 14.2971 6.27459 14.2692 5.50823C14.2116 3.92888 12.8789 2.59784 11.3005 2.53954L11.157 2.5343C10.6859 2.51712 10.2881 2.11936 10.2709 1.64821C10.2626 1.41972 10.3435 1.2082 10.4991 1.05262C10.6547 0.897025 10.8662 0.81614 11.0947 0.824471L11.2382 0.829704ZM1.64458 1.81904C2.47799 0.985634 3.60869 0.551325 4.82864 0.595967L4.97209 0.601198C5.44324 0.618383 5.841 1.01615 5.85819 1.48729C5.87552 1.9586 5.50575 2.32837 5.03445 2.31103L4.89099 2.3058C4.12743 2.27782 3.41934 2.54989 2.89739 3.07185C2.37545 3.59379 2.10336 4.3019 2.13135 5.06544C2.18923 6.6445 3.52081 7.97608 5.09989 8.03398L5.24334 8.03921C5.71481 8.05671 6.11211 8.45401 6.12959 8.92546C6.14677 9.39661 5.777 9.76638 5.30585 9.7492L5.1624 9.74397C3.94245 9.69932 2.77688 9.18114 1.88052 8.28478C0.984186 7.38845 0.466003 6.22288 0.42152 5.00309C0.376878 3.78314 0.811169 2.65245 1.64458 1.81904ZM5.04852 4.3178L11.2945 4.54559C11.7515 4.56226 12.1639 4.97471 12.1806 5.43169C12.1889 5.66016 12.1079 5.87154 11.9523 6.02714C11.7964 6.18301 11.585 6.26403 11.3566 6.2557L5.11057 6.02793C4.8821 6.01959 4.66424 5.92292 4.49686 5.75554C4.32951 5.58819 4.23283 5.37033 4.22448 5.14183C4.21617 4.91335 4.29719 4.70196 4.45277 4.54638C4.60864 4.39051 4.82003 4.30949 5.04852 4.3178Z" fill="#050505"/>
</svg>
