<svg width="35" height="22" viewBox="0 0 35 22" fill="none" xmlns="http://www.w3.org/2000/svg">
<path d="M34.485 11.4984V16.2441C34.485 17.1996 33.7277 17.9746 32.7793 18.0029V9.73601C33.7277 9.76428 34.485 10.5428 34.485 11.4984Z" fill="#676767"/>
<path d="M28.7778 8.95593H6.21564C5.76601 8.95593 5.40039 9.32155 5.40039 9.77085V17.9719C5.40039 18.4212 5.76601 18.7869 6.21564 18.7869H12.404C12.9978 18.7869 13.1659 18.2416 13.3907 17.9968C15.4084 15.1995 19.5842 15.1979 21.6028 17.9972C21.8229 18.2368 21.9967 18.7869 22.5892 18.7869H28.7778C29.2271 18.7869 29.5927 18.4212 29.5927 17.9719V9.77085C29.5927 9.32155 29.2271 8.95593 28.7778 8.95593Z" fill="#676767"/>
<path d="M28.7793 6.4766H6.21503C4.39952 6.4766 2.92383 7.95587 2.92383 9.77138V17.9711C2.92383 19.7866 4.39959 21.2659 6.21503 21.2659H12.4047C14.4382 21.2659 15.2606 19.5794 15.4022 19.4469C16.4227 18.0211 18.5688 18.0169 19.5923 19.4469C19.7185 19.5651 20.5673 21.2659 22.5898 21.2659H28.7794C30.5949 21.2659 32.0706 19.7866 32.0706 17.9711V9.77138C32.0705 7.95587 30.5948 6.4766 28.7793 6.4766ZM30.3011 17.9711C30.3011 18.8098 29.6181 19.4964 28.7793 19.4964H22.5897C21.5612 19.4964 21.2193 18.6028 21.029 18.41C19.2942 16.0067 15.7005 16.0061 13.9652 18.41C13.7877 18.5899 13.4439 19.4964 12.4045 19.4964H6.21503C5.37629 19.4964 4.69328 18.8099 4.69328 17.9711V9.77138C4.69328 8.93264 5.37629 8.24963 6.21503 8.24963H28.7793C29.6181 8.24963 30.3011 8.93264 30.3011 9.77138V17.9711Z" fill="#676767"/>
<path d="M2.21747 9.73602V18.003C1.26904 17.9747 0.511719 17.1996 0.511719 16.2442V11.4984C0.511719 10.5428 1.26904 9.76428 2.21747 9.73602Z" fill="#676767"/>
<path d="M21.1643 5.76878H13.8281C14.6704 4.62573 14.9464 3.42959 15.0773 2.54128C15.2154 1.6176 15.9869 0.94873 16.9105 0.94873H18.0854C19.0056 0.94873 19.777 1.61753 19.915 2.5377C20.046 3.42959 20.3221 4.62221 21.1643 5.76878Z" fill="#676767"/>
</svg>
