<svg width="14" height="13" viewBox="0 0 14 13" fill="none" xmlns="http://www.w3.org/2000/svg">
<path d="M7.00234 9.09999C8.16214 9.09999 9.10234 8.15979 9.10234 6.99999C9.10234 5.8402 8.16214 4.89999 7.00234 4.89999C5.84255 4.89999 4.90234 5.8402 4.90234 6.99999C4.90234 8.15979 5.84255 9.09999 7.00234 9.09999Z" fill="#050505"/>
<path d="M12.6 1.4H10.381L9.513 0.455C9.254 0.168 8.876 0 8.484 0H5.516C5.124 0 4.746 0.168 4.48 0.455L3.619 1.4H1.4C0.63 1.4 0 2.03 0 2.8V11.2C0 11.97 0.63 12.6 1.4 12.6H12.6C13.37 12.6 14 11.97 14 11.2V2.8C14 2.03 13.37 1.4 12.6 1.4ZM7 10.5C5.068 10.5 3.5 8.932 3.5 7C3.5 5.068 5.068 3.5 7 3.5C8.932 3.5 10.5 5.068 10.5 7C10.5 8.932 8.932 10.5 7 10.5Z" fill="#050505"/>
</svg>
