<svg width="12" height="14" viewBox="0 0 12 14" fill="none" xmlns="http://www.w3.org/2000/svg">
<path d="M1.20035 2.43279L1.2 9.91667C1.2 11.4631 2.43784 12.7284 4.00275 12.8271L4.2 12.8333L9.49728 12.8342C9.24994 13.5134 8.58342 14 7.8 14H3.6C1.61177 14 0 12.433 0 10.5V4.08333C0 3.32124 0.501052 2.67293 1.20035 2.43279ZM10.2 0C11.1941 0 12 0.783502 12 1.75V9.91667C12 10.8832 11.1941 11.6667 10.2 11.6667H4.2C3.20589 11.6667 2.4 10.8832 2.4 9.91667V1.75C2.4 0.783502 3.20589 0 4.2 0H10.2ZM10.2 1.16667H4.2C3.86863 1.16667 3.6 1.42783 3.6 1.75V9.91667C3.6 10.2388 3.86863 10.5 4.2 10.5H10.2C10.5314 10.5 10.8 10.2388 10.8 9.91667V1.75C10.8 1.42783 10.5314 1.16667 10.2 1.16667Z" fill="#676767"/>
</svg>
