<svg width="36" height="39" viewBox="0 0 36 39" fill="none" xmlns="http://www.w3.org/2000/svg">
<path d="M29.0431 33.0645H4.79576C2.37971 33.0645 0.414062 31.0989 0.414062 28.6828V16.1291C0.414062 15.6836 0.775192 15.3226 1.22051 15.3226C1.66584 15.3226 2.02697 15.6836 2.02697 16.1291V28.6828C2.02697 30.2095 3.26898 31.4516 4.79576 31.4516H29.0431C29.7102 31.4516 30.2528 30.909 30.2528 30.242V20.5645C30.2528 19.8975 29.7102 19.3549 29.0431 19.3549H7.67221C7.22688 19.3549 6.86576 18.9938 6.86576 18.5484C6.86576 18.103 7.22688 17.742 7.67221 17.742H29.0431C30.5995 17.742 31.8657 19.0082 31.8657 20.5645V30.242C31.8657 31.7983 30.5995 33.0645 29.0431 33.0645Z" fill="#3D3D3D"/>
<path d="M7.67213 19.3548H3.63987C1.86116 19.3548 0.414062 17.9077 0.414062 16.129C0.414062 14.3503 1.86116 12.9032 3.63987 12.9032H7.67213C8.11753 12.9032 8.47858 13.2643 8.47858 13.7097C8.47858 14.1551 8.11753 14.5161 7.67213 14.5161H3.63987C2.75051 14.5161 2.02697 15.2397 2.02697 16.129C2.02697 17.0184 2.75051 17.7419 3.63987 17.7419H7.67213C8.11753 17.7419 8.47858 18.103 8.47858 18.5484C8.47858 18.9938 8.11753 19.3548 7.67213 19.3548Z" fill="#3D3D3D"/>
<path d="M32.6717 38.7097H10.091C8.31233 38.7097 6.86523 37.2626 6.86523 35.4839V32.2581C6.86523 31.8127 7.22636 31.4516 7.67169 31.4516C8.11709 31.4516 8.47814 31.8127 8.47814 32.2581V35.4839C8.47814 36.3732 9.20169 37.0968 10.091 37.0968H32.6717C33.561 37.0968 34.2846 36.3732 34.2846 35.4839V7.5921L28.3053 1.6129H10.091C9.20169 1.6129 8.47814 2.33645 8.47814 3.22581V18.5483C8.47814 18.9937 8.11709 19.3548 7.67169 19.3548C7.22636 19.3548 6.86523 18.9937 6.86523 18.5483V3.22581C6.86523 1.4471 8.31233 0 10.091 0H28.6394C28.8533 0 29.0584 0.0850001 29.2097 0.23621L35.6613 6.68782C35.8125 6.83903 35.8975 7.04419 35.8975 7.25806V35.4839C35.8975 37.2626 34.4504 38.7097 32.6717 38.7097Z" fill="#3D3D3D"/>
<path d="M34.2836 8.06452H28.6385C28.1932 8.06452 27.832 7.70347 27.832 7.25807V1.61291C27.832 1.16751 28.1932 0.806458 28.6385 0.806458C29.0838 0.806458 29.4449 1.16751 29.4449 1.61291V6.45162H34.2836C34.729 6.45162 35.0901 6.81267 35.0901 7.25807C35.0901 7.70347 34.729 8.06452 34.2836 8.06452Z" fill="#3D3D3D"/>
<path d="M18.1545 7.25804H11.7029C11.2575 7.25804 10.8965 6.897 10.8965 6.45159C10.8965 6.00619 11.2575 5.64514 11.7029 5.64514H18.1545C18.5999 5.64514 18.961 6.00619 18.961 6.45159C18.961 6.897 18.5999 7.25804 18.1545 7.25804Z" fill="#3D3D3D"/>
<path d="M24.6062 10.4839H11.7029C11.2575 10.4839 10.8965 10.1228 10.8965 9.67742C10.8965 9.23202 11.2575 8.87097 11.7029 8.87097H24.6062C25.0515 8.87097 25.4126 9.23202 25.4126 9.67742C25.4126 10.1228 25.0515 10.4839 24.6062 10.4839Z" fill="#3D3D3D"/>
<path d="M24.6062 13.7097H11.7029C11.2575 13.7097 10.8965 13.3486 10.8965 12.9032C10.8965 12.4578 11.2575 12.0968 11.7029 12.0968H24.6062C25.0515 12.0968 25.4126 12.4578 25.4126 12.9032C25.4126 13.3486 25.0515 13.7097 24.6062 13.7097Z" fill="#3D3D3D"/>
<path d="M11.2998 29.8387C9.07645 29.8387 7.26758 28.0298 7.26758 25.8064C7.26758 23.583 9.07645 21.7742 11.2998 21.7742C11.7452 21.7742 12.1063 22.1352 12.1063 22.5806C12.1063 23.026 11.7452 23.3871 11.2998 23.3871C9.9658 23.3871 8.88048 24.4724 8.88048 25.8064C8.88048 27.1405 9.9658 28.2258 11.2998 28.2258C11.7452 28.2258 12.1063 28.5868 12.1063 29.0322C12.1063 29.4776 11.7452 29.8387 11.2998 29.8387Z" fill="#3D3D3D"/>
<path d="M23.8022 29.8387C23.466 29.8387 23.1651 29.6302 23.0471 29.3154L20.6277 22.8638C20.4714 22.4468 20.6827 21.9819 21.0997 21.8255C21.5172 21.6691 21.9815 21.8805 22.138 22.2974L23.8022 26.7355L25.4664 22.2975C25.6229 21.8805 26.0873 21.6691 26.5047 21.8256C26.9218 21.9819 27.1331 22.4468 26.9767 22.8639L24.5573 29.3155C24.4392 29.6302 24.1383 29.8387 23.8022 29.8387Z" fill="#3D3D3D"/>
<path d="M16.5442 29.8387H14.1248C13.6794 29.8387 13.3184 29.4776 13.3184 29.0322C13.3184 28.5868 13.6794 28.2258 14.1248 28.2258H16.5442C16.9888 28.2258 17.3506 27.864 17.3506 27.4193C17.3506 26.9747 16.9888 26.6129 16.5442 26.6129H15.7377C14.4037 26.6129 13.3184 25.5276 13.3184 24.1935C13.3184 22.8595 14.4037 21.7742 15.7377 21.7742H18.1571C18.6024 21.7742 18.9635 22.1352 18.9635 22.5806C18.9635 23.026 18.6024 23.3871 18.1571 23.3871H15.7377C15.293 23.3871 14.9313 23.7488 14.9313 24.1935C14.9313 24.6382 15.293 25 15.7377 25H16.5442C17.8782 25 18.9635 26.0853 18.9635 27.4193C18.9635 28.7534 17.8782 29.8387 16.5442 29.8387Z" fill="#3D3D3D"/>
</svg>
