<svg width="7" height="11" viewBox="0 0 7 11" fill="none" xmlns="http://www.w3.org/2000/svg">
<path d="M6.41017 5.00027C6.41088 5.13296 6.38747 5.2645 6.3413 5.38734C6.29513 5.51018 6.22711 5.62191 6.14112 5.71613L2.4301 9.74914C2.2554 9.93899 2.01846 10.0457 1.77139 10.0457C1.52433 10.0457 1.28739 9.93899 1.11269 9.74914C0.937989 9.55928 0.839844 9.30178 0.839844 9.03328C0.839844 8.76478 0.937989 8.50727 1.11269 8.31742L4.17428 5.00027L1.12197 1.68311C0.969975 1.49024 0.890553 1.24213 0.899572 0.988376C0.908591 0.734623 1.00539 0.493913 1.17061 0.314349C1.33584 0.134785 1.55733 0.0295925 1.79083 0.0197916C2.02432 0.00998969 2.25262 0.096301 2.4301 0.261479L6.14112 4.29449C6.31252 4.48229 6.40915 4.73576 6.41017 5.00027Z" fill="#060606"/>
</svg>
