<svg width="21" height="21" viewBox="0 0 21 21" fill="none" xmlns="http://www.w3.org/2000/svg">
<path d="M1.05 8.4C1.68 8.4 2.1 7.98 2.1 7.35V4.2C2.1 3.045 3.045 2.1 4.2 2.1H7.35C7.98 2.1 8.4 1.68 8.4 1.05C8.4 0.42 7.98 0 7.35 0H4.2C1.89 0 0 1.89 0 4.2V7.35C0 7.98 0.42 8.4 1.05 8.4ZM16.8 0H13.65C13.02 0 12.6 0.42 12.6 1.05C12.6 1.68 13.02 2.1 13.65 2.1H16.8C17.955 2.1 18.9 3.045 18.9 4.2V7.35C18.9 7.98 19.32 8.4 19.95 8.4C20.58 8.4 21 7.98 21 7.35V4.2C21 1.89 19.11 0 16.8 0ZM19.95 12.6C19.32 12.6 18.9 13.02 18.9 13.65V16.8C18.9 17.955 17.955 18.9 16.8 18.9H13.65C13.02 18.9 12.6 19.32 12.6 19.95C12.6 20.58 13.02 21 13.65 21H16.8C19.11 21 21 19.11 21 16.8V13.65C21 13.02 20.58 12.6 19.95 12.6ZM4.2 21H7.35C7.98 21 8.4 20.58 8.4 19.95C8.4 19.32 7.98 18.9 7.35 18.9H4.2C3.045 18.9 2.1 17.955 2.1 16.8V13.65C2.1 13.02 1.68 12.6 1.05 12.6C0.42 12.6 0 13.02 0 13.65V16.8C0 19.11 1.89 21 4.2 21Z" fill="white" fill-opacity="0.5"/>
<path d="M9.45234 4.19996C9.45234 3.56996 9.03234 3.14996 8.40234 3.14996H4.20234C3.57234 3.14996 3.15234 3.56996 3.15234 4.19996V8.39996C3.15234 9.02996 3.57234 9.44996 4.20234 9.44996H8.40234C9.03234 9.44996 9.45234 9.02996 9.45234 8.39996V4.19996ZM7.35234 7.34996H5.25234V5.24996H7.35234V7.34996ZM16.8023 17.85C17.4323 17.85 17.8523 17.43 17.8523 16.8V12.6C17.8523 11.97 17.4323 11.55 16.8023 11.55H12.6023C11.9723 11.55 11.5523 11.97 11.5523 12.6V16.8C11.5523 17.43 11.9723 17.85 12.6023 17.85H16.8023ZM13.6523 13.65H15.7523V15.75H13.6523V13.65ZM12.6023 3.14996C11.9723 3.14996 11.5523 3.56996 11.5523 4.19996V7.34996C11.5523 7.97996 11.9723 8.39996 12.6023 8.39996H15.7523C15.7523 9.02996 16.1723 9.44996 16.8023 9.44996C17.4323 9.44996 17.8523 9.02996 17.8523 8.39996V7.34996C17.8523 6.71996 17.4323 6.29996 16.8023 6.29996H13.6523V4.19996C13.6523 3.56996 13.2323 3.14996 12.6023 3.14996Z" fill="white" fill-opacity="0.5"/>
<path d="M16.8023 5.24996C17.4323 5.24996 17.8523 4.82996 17.8523 4.19996C17.8523 3.56996 17.4323 3.14996 16.8023 3.14996H15.7523C15.1223 3.14996 14.7023 3.56996 14.7023 4.19996C14.7023 4.82996 15.1223 5.24996 15.7523 5.24996H16.8023ZM5.25234 17.85H7.35234C7.98234 17.85 8.40234 17.43 8.40234 16.8C8.40234 16.17 7.98234 15.75 7.35234 15.75H6.30234V12.6C6.30234 11.97 5.88234 11.55 5.25234 11.55H4.20234C3.57234 11.55 3.15234 11.97 3.15234 12.6C3.15234 13.23 3.57234 13.65 4.20234 13.65V16.8C4.20234 17.43 4.62234 17.85 5.25234 17.85ZM8.40234 11.55C7.77234 11.55 7.35234 11.97 7.35234 12.6V13.65C7.35234 14.28 7.77234 14.7 8.40234 14.7C9.03234 14.7 9.45234 14.28 9.45234 13.65V12.6C9.45234 11.97 9.03234 11.55 8.40234 11.55Z" fill="white" fill-opacity="0.5"/>
</svg>
