<svg width="40" height="40" viewBox="0 0 40 40" fill="none" xmlns="http://www.w3.org/2000/svg">
<path d="M0 35.8342C0 38.1351 1.873 40 4.16581 40H35.3448C37.6456 40 39.5106 38.127 39.5106 35.8342V4.65525C39.5106 2.35437 37.6376 0.489441 35.3448 0.489441H4.16581C1.86492 0.489441 0 2.36244 0 4.65525V35.8342ZM35.3448 38.0221H4.16581C2.96289 38.0221 1.97795 37.0371 1.97795 35.8342V30.6269L9.46994 23.135L15.872 29.5371C16.2596 29.9246 16.8812 29.9246 17.2687 29.5371L28.8296 17.9761L37.5326 26.6791V35.8342C37.5326 37.0371 36.5477 38.0221 35.3448 38.0221ZM4.16581 2.46739H35.3448C36.5477 2.46739 37.5326 3.45233 37.5326 4.65525V23.8777L29.5239 15.8771C29.1364 15.4896 28.5148 15.4896 28.1273 15.8771L16.5663 27.438L10.1642 21.0359C9.77673 20.6484 9.15508 20.6484 8.76757 21.0359L1.97795 27.8255V4.65525C1.97795 3.45233 2.96289 2.46739 4.16581 2.46739Z" fill="#3D3D3D"/>
<path d="M12.2464 16.3211C15.0236 16.3211 17.2761 14.0606 17.2761 11.2915C17.2761 8.52233 15.0156 6.26181 12.2464 6.26181C9.47731 6.26181 7.2168 8.52233 7.2168 11.2915C7.2168 14.0606 9.46924 16.3211 12.2464 16.3211ZM12.2464 8.23976C13.9338 8.23976 15.2981 9.61222 15.2981 11.2915C15.2981 12.9707 13.9257 14.3432 12.2464 14.3432C10.5672 14.3432 9.19475 12.9707 9.19475 11.2915C9.19475 9.61222 10.5591 8.23976 12.2464 8.23976Z" fill="#3D3D3D"/>
</svg>
