<svg width="19" height="19" viewBox="0 0 19 19" fill="none" xmlns="http://www.w3.org/2000/svg">
<path d="M9.5 0C7.62108 0 5.78435 0.557165 4.22209 1.60104C2.65982 2.64491 1.44218 4.12861 0.723149 5.86451C0.00411622 7.6004 -0.184015 9.51054 0.182544 11.3534C0.549104 13.1962 1.45389 14.8889 2.78249 16.2175C4.11109 17.5461 5.80383 18.4509 7.64665 18.8175C9.48947 19.184 11.3996 18.9959 13.1355 18.2769C14.8714 17.5578 16.3551 16.3402 17.399 14.7779C18.4428 13.2156 19 11.3789 19 9.5C19 6.98044 17.9991 4.56408 16.2175 2.78249C14.4359 1.00089 12.0196 0 9.5 0ZM9.5 17.4167C7.93424 17.4167 6.40363 16.9524 5.10174 16.0825C3.79985 15.2126 2.78515 13.9762 2.18596 12.5296C1.58676 11.083 1.42999 9.49122 1.73545 7.95553C2.04092 6.41985 2.79491 5.00924 3.90208 3.90207C5.00924 2.79491 6.41986 2.04092 7.95554 1.73545C9.49122 1.42998 11.083 1.58676 12.5296 2.18595C13.9762 2.78515 15.2126 3.79985 16.0825 5.10174C16.9524 6.40362 17.4167 7.93423 17.4167 9.5C17.4167 11.5996 16.5826 13.6133 15.0979 15.0979C13.6133 16.5826 11.5996 17.4167 9.5 17.4167Z" fill="white"/>
<path d="M9.50086 7.6792C9.2909 7.6792 9.08954 7.76261 8.94107 7.91108C8.79261 8.05954 8.7092 8.26091 8.7092 8.47087V13.8542C8.7092 14.0642 8.79261 14.2655 8.94107 14.414C9.08954 14.5625 9.2909 14.6459 9.50086 14.6459C9.71083 14.6459 9.91219 14.5625 10.0607 14.414C10.2091 14.2655 10.2925 14.0642 10.2925 13.8542V8.47087C10.2925 8.26091 10.2091 8.05954 10.0607 7.91108C9.91219 7.76261 9.71083 7.6792 9.50086 7.6792ZM9.50086 4.43337C9.28655 4.44143 9.08345 4.53123 8.93328 4.68435C8.78311 4.83747 8.69726 5.04227 8.69336 5.2567V5.38337C8.69299 5.48666 8.71412 5.5889 8.75542 5.68357C8.79671 5.77825 8.85726 5.8633 8.93322 5.9333C9.00917 6.0033 9.09887 6.05671 9.1966 6.09016C9.29433 6.1236 9.39795 6.13633 9.50086 6.12753C9.70833 6.1197 9.90517 6.03377 10.052 5.88697C10.1988 5.74017 10.2847 5.54333 10.2925 5.33587V5.14587C10.2932 5.04525 10.2725 4.94564 10.2318 4.8536C10.1912 4.76156 10.1315 4.67917 10.0567 4.61186C9.98189 4.54455 9.89369 4.49384 9.79789 4.46308C9.70209 4.43231 9.60086 4.42219 9.50086 4.43337Z" fill="white"/>
</svg>
