<svg width="21" height="11" viewBox="0 0 21 11" fill="none" xmlns="http://www.w3.org/2000/svg">
<path d="M10.6792 3.66665C9.9229 1.5308 7.8925 0 5.5 0C2.46125 0 0 2.46125 0 5.5C0 8.53875 2.46125 11 5.5 11C7.8925 11 9.9229 9.46915 10.6792 7.33335H14.6667V11H18.3333V7.33335H20.1667V3.66665H10.6792ZM5.5 7.33331C4.4871 7.33331 3.66665 6.5129 3.66665 5.49996C3.66665 4.48701 4.4871 3.66665 5.5 3.66665C6.5129 3.66665 7.33335 4.48705 7.33335 5.5C7.33335 6.51295 6.5129 7.33331 5.5 7.33331Z" fill="white"/>
</svg>
