<svg width="83" height="83" viewBox="0 0 83 83" fill="none" xmlns="http://www.w3.org/2000/svg">
<g opacity="0.75" filter="url(#filter0_d_264_127)">
<path d="M24.7832 58.4057V61.1C24.7832 62.404 25.3012 63.6546 26.2233 64.5766C27.1453 65.4987 28.3959 66.0167 29.6999 66.0167H65.0999C66.4039 66.0167 67.6544 65.4987 68.5765 64.5766C69.4985 63.6546 70.0165 62.404 70.0165 61.1V22.4157C70.0169 21.899 69.9156 21.3873 69.7181 20.9098C69.5207 20.4323 69.2312 19.9984 68.866 19.6328L59.367 10.1338C59.0015 9.76869 58.5676 9.47914 58.0901 9.28174C57.6126 9.08433 57.1009 8.98293 56.5842 8.98334H29.6999C28.3959 8.98334 27.1453 9.50134 26.2233 10.4234C25.3012 11.3455 24.7832 12.596 24.7832 13.9V58.4057Z" fill="#232323"/>
<path d="M43.4674 15.8667H39.5341C39.2733 15.8667 39.0232 15.7631 38.8388 15.5787C38.6544 15.3943 38.5508 15.1442 38.5508 14.8834C38.5508 14.6226 38.6544 14.3724 38.8388 14.188C39.0232 14.0036 39.2733 13.9 39.5341 13.9H43.4674C43.7282 13.9 43.9784 14.0036 44.1628 14.188C44.3472 14.3724 44.4508 14.6226 44.4508 14.8834C44.4508 15.1442 44.3472 15.3943 44.1628 15.5787C43.9784 15.7631 43.7282 15.8667 43.4674 15.8667Z" fill="#505050"/>
<path d="M54.2846 15.8667H47.4013C47.1405 15.8667 46.8904 15.7631 46.706 15.5787C46.5216 15.3943 46.418 15.1442 46.418 14.8834C46.418 14.6226 46.5216 14.3724 46.706 14.188C46.8904 14.0036 47.1405 13.9 47.4013 13.9H54.2846C54.5454 13.9 54.7955 14.0036 54.98 14.188C55.1644 14.3724 55.268 14.6226 55.268 14.8834C55.268 15.1442 55.1644 15.3943 54.98 15.5787C54.7955 15.7631 54.5454 15.8667 54.2846 15.8667Z" fill="#505050"/>
<path d="M50.3508 19.8H39.5341C39.2733 19.8 39.0232 19.6964 38.8388 19.512C38.6544 19.3276 38.5508 19.0775 38.5508 18.8167C38.5508 18.5559 38.6544 18.3058 38.8388 18.1214C39.0232 17.937 39.2733 17.8334 39.5341 17.8334H50.3508C50.6116 17.8334 50.8617 17.937 51.0461 18.1214C51.2305 18.3058 51.3341 18.5559 51.3341 18.8167C51.3341 19.0775 51.2305 19.3276 51.0461 19.512C50.8617 19.6964 50.6116 19.8 50.3508 19.8Z" fill="#505050"/>
<path d="M34.6159 13.9H30.6826C30.1395 13.9 29.6992 14.3403 29.6992 14.8834V18.8167C29.6992 19.3598 30.1395 19.8 30.6826 19.8H34.6159C35.159 19.8 35.5992 19.3598 35.5992 18.8167V14.8834C35.5992 14.3403 35.159 13.9 34.6159 13.9Z" fill="#505050"/>
<path d="M69.6628 20.7833H61.1668C60.3844 20.7833 59.6341 20.4725 59.0808 19.9193C58.5276 19.3661 58.2168 18.6157 58.2168 17.8333V9.33734C58.6439 9.53356 59.0333 9.80314 59.3673 10.1338L68.8663 19.6328C69.197 19.9668 69.4666 20.3562 69.6628 20.7833Z" fill="#1B1B1B"/>
<path d="M42.4824 29.6334H16.9158C14.7434 29.6334 12.9824 31.3944 12.9824 33.5667V53.2334C12.9824 55.4057 14.7434 57.1667 16.9158 57.1667H42.4824C44.6547 57.1667 46.4158 55.4057 46.4158 53.2334V33.5667C46.4158 31.3944 44.6547 29.6334 42.4824 29.6334Z" fill="#505050"/>
<path d="M51.2737 52.3366L46.416 49.3V37.5L51.2737 34.4635C51.5717 34.2773 51.9141 34.1743 52.2654 34.1652C52.6167 34.1562 52.9639 34.2414 53.2711 34.412C53.5783 34.5827 53.8341 34.8325 54.012 35.1356C54.1899 35.4386 54.2834 35.7838 54.2827 36.1352V50.6688C54.2827 51.0199 54.1887 51.3645 54.0105 51.667C53.8323 51.9695 53.5764 52.2188 53.2694 52.389C52.9623 52.5591 52.6153 52.644 52.2644 52.6348C51.9135 52.6256 51.5714 52.5226 51.2737 52.3366Z" fill="#3A3A3A"/>
<path d="M24.7827 46.2979V40.5021C24.77 40.173 24.8418 39.8461 24.9911 39.5525C25.1405 39.259 25.3625 39.0085 25.636 38.825C25.9095 38.6415 26.2254 38.531 26.5537 38.5041C26.882 38.4772 27.2117 38.5347 27.5114 38.6712L33.4989 41.569C33.8354 41.7421 34.1176 42.0046 34.3147 42.3276C34.5117 42.6506 34.616 43.0216 34.616 43.4C34.616 43.7784 34.5117 44.1494 34.3147 44.4724C34.1176 44.7954 33.8354 45.0579 33.4989 45.231L27.5114 48.1289C27.2117 48.2653 26.882 48.3229 26.5537 48.2959C26.2254 48.269 25.9095 48.1585 25.636 47.975C25.3625 47.7915 25.1405 47.541 24.9911 47.2475C24.8418 46.9539 24.77 46.627 24.7827 46.2979Z" fill="#232323"/>
</g>
<defs>
<filter id="filter0_d_264_127" x="0" y="0" width="83" height="83" filterUnits="userSpaceOnUse" color-interpolation-filters="sRGB">
<feFlood flood-opacity="0" result="BackgroundImageFix"/>
<feColorMatrix in="SourceAlpha" type="matrix" values="0 0 0 0 0 0 0 0 0 0 0 0 0 0 0 0 0 0 127 0" result="hardAlpha"/>
<feOffset dy="4"/>
<feGaussianBlur stdDeviation="6"/>
<feComposite in2="hardAlpha" operator="out"/>
<feColorMatrix type="matrix" values="0 0 0 0 0 0 0 0 0 0 0 0 0 0 0 0 0 0 0.25 0"/>
<feBlend mode="normal" in2="BackgroundImageFix" result="effect1_dropShadow_264_127"/>
<feBlend mode="normal" in="SourceGraphic" in2="effect1_dropShadow_264_127" result="shape"/>
</filter>
</defs>
</svg>
