<svg width="17" height="12" viewBox="0 0 17 12" fill="none" xmlns="http://www.w3.org/2000/svg">
<path d="M16.8862 5.52643C16.3424 4.5833 13.3516 -0.149314 8.27059 0.00362473C3.57196 0.122577 0.853039 4.25194 0.113833 5.52643C0.0392598 5.65559 0 5.80211 0 5.95126C0 6.10041 0.0392598 6.24693 0.113833 6.37609C0.64912 7.30222 3.51248 11.8989 8.51699 11.8989H8.72941C13.428 11.7799 16.1555 7.65058 16.8862 6.37609C16.9607 6.24693 17 6.10041 17 5.95126C17 5.80211 16.9607 5.65559 16.8862 5.52643ZM8.68693 10.1996C5.02488 10.2845 2.63733 7.14928 1.88963 5.95126C2.73929 4.5833 4.95691 1.78792 8.35556 1.70295C12.0006 1.60949 14.3967 4.75324 15.1529 5.95126C14.2777 7.31922 12.0856 10.1146 8.68693 10.1996Z" fill="#656565"/>
<path d="M8.50116 2.97729C7.913 2.97729 7.33804 3.15171 6.849 3.47847C6.35996 3.80524 5.97879 4.26969 5.75371 4.81308C5.52863 5.35648 5.46974 5.95441 5.58449 6.53128C5.69923 7.10814 5.98246 7.63802 6.39836 8.05392C6.81425 8.46981 7.34414 8.75304 7.921 8.86779C8.49786 8.98253 9.0958 8.92364 9.63919 8.69856C10.1826 8.47348 10.647 8.09232 10.9738 7.60328C11.3006 7.11424 11.475 6.53928 11.475 5.95111C11.475 5.16241 11.1617 4.40601 10.604 3.84831C10.0463 3.29061 9.28987 2.97729 8.50116 2.97729ZM8.50116 7.22561C8.24909 7.22561 8.00268 7.15086 7.79309 7.01082C7.5835 6.87077 7.42015 6.67172 7.32368 6.43884C7.22722 6.20596 7.20198 5.9497 7.25116 5.70247C7.30034 5.45524 7.42172 5.22815 7.59996 5.04991C7.7782 4.87167 8.00529 4.75028 8.25252 4.70111C8.49975 4.65193 8.75601 4.67717 8.98889 4.77363C9.22177 4.8701 9.42082 5.03345 9.56087 5.24304C9.70091 5.45263 9.77566 5.69904 9.77566 5.95111C9.77566 6.28913 9.64138 6.6133 9.40237 6.85232C9.16335 7.09133 8.83918 7.22561 8.50116 7.22561Z" fill="#656565"/>
</svg>
