<svg width="22" height="22" viewBox="0 0 22 22" fill="none" xmlns="http://www.w3.org/2000/svg">
<path fill-rule="evenodd" clip-rule="evenodd" d="M11 22C17.0751 22 22 17.0751 22 11C22 4.92487 17.0751 0 11 0C4.92487 0 0 4.92487 0 11C0 17.0751 4.92487 22 11 22ZM14.3 8.8C14.3 10.6226 12.8226 12.1 11 12.1C9.17741 12.1 7.7 10.6226 7.7 8.8C7.7 6.97747 9.17741 5.5 11 5.5C12.8226 5.5 14.3 6.97747 14.3 8.8ZM4.3992 16.5C5.90434 14.4961 8.3007 13.2 10.9998 13.2C13.6988 13.2 16.0953 14.4961 17.6004 16.5C16.0953 18.5039 13.6988 19.8 10.9998 19.8C8.3007 19.8 5.90434 18.5039 4.3992 16.5Z" fill="white"/>
</svg>
