<svg width="23" height="19" viewBox="0 0 23 19" fill="none" xmlns="http://www.w3.org/2000/svg">
<path d="M5.4128 5.41178C5.7864 5.41178 6.08927 5.10891 6.08927 4.73531C6.08927 4.3617 5.7864 4.05884 5.4128 4.05884C5.03919 4.05884 4.73633 4.3617 4.73633 4.73531C4.73633 5.10891 5.03919 5.41178 5.4128 5.41178Z" fill="white"/>
<path d="M5.41153 6.76465C4.66552 6.76465 4.05859 7.37158 4.05859 8.11759H6.76448C6.76448 7.37158 6.15755 6.76465 5.41153 6.76465Z" fill="white"/>
<path d="M16.9121 12.6337V13.0722L17.5886 13.5231L18.2651 13.0722V12.6337L17.5886 12.1827L16.9121 12.6337Z" fill="white"/>
<path d="M17.5875 7.44116C14.6035 7.44116 12.1758 9.86888 12.1758 12.8529C12.1758 15.837 14.6035 18.2647 17.5875 18.2647C20.5716 18.2647 22.9993 15.837 22.9993 12.8529C22.9993 9.86888 20.5716 7.44116 17.5875 7.44116ZM19.617 13.7962L17.5875 15.1491L15.5581 13.7962V11.9097L17.5875 10.5567L19.617 11.9097V13.7962Z" fill="white"/>
<path d="M9.47059 8.11765H12.762L12.7625 8.11751C13.3039 7.56587 13.9387 7.10614 14.6412 6.76471C14.1763 6.76471 9.75042 6.76471 9.47059 6.76471V5.41176H18.2647V4.05882H9.47059V2.70588H18.2647L18.2643 0H0V12.1765H10.8572C10.8817 12.0619 10.9336 10.847 11.7316 9.47059H9.47059V8.11765ZM8.11765 9.47059H2.70588V8.11765C2.70588 7.23363 3.13201 6.44744 3.78963 5.95335C3.53406 5.6138 3.38235 5.19196 3.38235 4.73529C3.38235 3.61632 4.29279 2.70588 5.41176 2.70588C6.53083 2.70588 7.44118 3.61632 7.44118 4.73529C7.44118 5.19196 7.28947 5.6138 7.0339 5.95335C7.69147 6.44744 8.11765 7.23363 8.11765 8.11765V9.47059Z" fill="white"/>
</svg>
