<svg style="background: #000000" width="37" height="39" viewBox="0 0 37 39" fill="none" xmlns="http://www.w3.org/2000/svg">
<path d="M0.47266 19.1105C0.480117 8.56614 8.63133 -0.0110059 18.6425 1.06004e-05C21.0239 0.00309579 23.3812 0.50195 25.5796 1.468C27.7779 2.43404 29.774 3.84829 31.4534 5.62971C33.1329 7.41113 34.4627 9.5247 35.3666 11.8493C36.2706 14.174 36.731 16.6639 36.7213 19.1766C36.7109 29.6942 28.6208 38.2289 18.6276 38.2462C8.63432 38.2635 0.466693 29.6486 0.47266 19.1105ZM32.0111 19.1499C32.0335 11.4068 26.045 5.02039 18.7365 4.98577C11.2907 4.95272 5.2202 11.2809 5.19931 19.0869C5.17843 26.8441 11.2236 33.251 18.5888 33.251C22.1384 33.2506 25.5434 31.7668 28.0589 29.1242C30.5743 26.4815 31.9953 22.8952 32.0111 19.1499Z" fill="#FAFCF7"/>
<path d="M24.7278 29.0316C23.2676 30.3143 21.5717 30.8494 19.7744 30.9517C13.3071 31.3184 8.10767 26.3704 7.73926 19.5527C7.35295 12.3794 13.7695 6.2495 20.5008 7.3543C21.706 7.53131 22.8766 7.91011 23.9686 8.47641C24.1923 8.59759 24.5742 8.67156 24.431 9.05556C24.3221 9.34671 24.0163 9.21294 23.7866 9.16415C20.0981 8.44808 16.1798 10.3838 14.1678 13.9233C12.1557 17.4627 12.3779 22.0535 14.7644 25.2152C17.1508 28.377 20.2189 29.6832 24.0119 29.0804C24.2475 29.0442 24.4892 29.0474 24.7278 29.0316ZM20.4963 19.8801C20.2935 17.6217 20.9438 15.6434 22.4353 13.9973C23.9268 12.3511 25.8256 11.6917 28.1031 11.6885C24.6219 9.20822 19.9579 9.98882 17.1657 13.3756C14.4989 16.6113 14.5227 21.7261 17.2209 24.9288C20.0235 28.2589 24.6786 29.0206 28.0435 26.5876C23.5271 26.128 20.8409 23.7233 20.4963 19.8801Z" fill="url(#paint0_linear_0_1)"/>
<path d="M30.5325 19.1404C30.5325 20.3108 30.0919 21.4332 29.3075 22.2608C28.5232 23.0884 27.4594 23.5533 26.3502 23.5533C25.241 23.5533 24.1773 23.0884 23.3929 22.2608C22.6086 21.4332 22.168 20.3108 22.168 19.1404C22.168 17.97 22.6086 16.8476 23.3929 16.02C24.1773 15.1924 25.241 14.7275 26.3502 14.7275C27.4594 14.7275 28.5232 15.1924 29.3075 16.02C30.0919 16.8476 30.5325 17.97 30.5325 19.1404Z" fill="#FAF9FC"/>
<path d="M25.1107 28.9766L25.0898 28.9262L25.142 28.9341L25.1107 28.9766Z" fill="#000000"/>
<defs>
<linearGradient id="paint0_linear_0_1" x1="17.9129" y1="7.22486" x2="17.9129" y2="30.9708" gradientUnits="userSpaceOnUse">
<stop stop-color="#439CFB"/>
<stop offset="1" stop-color="#F187FB"/>
</linearGradient>
</defs>
</svg>
